<?xml version="1.0" standalone="no"?>
<!DOCTYPE svg PUBLIC "-//W3C//DTD SVG 20010904//EN"
 "http://www.w3.org/TR/2001/REC-SVG-20010904/DTD/svg10.dtd">
<svg version="1.0" xmlns="http://www.w3.org/2000/svg"
 width="2048.000000pt" height="2048.000000pt" viewBox="0 0 2048.000000 2048.000000"
 preserveAspectRatio="xMidYMid meet">

<g transform="translate(0.000000,2048.000000) scale(0.100000,-0.100000)"
fill="#000000" stroke="none">
<path d="M10263 18058 c2 -132 -11 -188 -43 -188 -9 0 -23 12 -31 26 -41 78
-257 237 -339 250 -38 6 -40 5 -40 -20 0 -14 4 -26 9 -26 21 0 113 -96 153
-160 23 -39 46 -70 50 -70 5 0 8 -6 8 -13 0 -12 59 -84 124 -151 l29 -31 10
23 c6 13 16 21 23 18 8 -3 16 0 20 5 3 6 15 9 25 6 15 -4 19 0 19 20 0 23 3
25 29 20 25 -5 34 -1 58 26 26 30 31 32 70 23 38 -8 44 -6 88 28 27 20 52 36
56 36 5 0 9 -18 9 -41 0 -41 -33 -102 -79 -143 -11 -11 -21 -25 -21 -33 0 -20
25 -16 46 8 26 30 92 59 135 59 19 0 40 5 47 12 9 9 13 7 18 -5 5 -15 9 -15
45 0 40 15 76 12 64 -7 -4 -6 7 -15 24 -21 56 -20 33 -46 -44 -50 -24 -1 -25
-3 -7 -6 28 -6 28 -30 0 -60 -36 -38 2 -28 62 17 29 22 64 40 76 40 62 0 238
-45 406 -104 102 -36 191 -66 197 -66 6 0 19 -4 29 -10 9 -5 46 -21 82 -36 92
-37 369 -174 378 -188 4 -6 14 -31 23 -55 16 -47 33 -62 42 -37 3 8 9 77 12
153 6 127 9 143 37 200 29 60 66 109 74 100 2 -2 -14 -42 -36 -89 -42 -91 -51
-153 -28 -203 15 -34 46 -33 53 3 24 118 84 229 172 322 77 79 92 83 43 11
-29 -42 -40 -91 -21 -91 5 0 32 28 59 63 68 84 157 167 217 202 123 71 200
129 190 146 -11 17 -55 9 -153 -27 -196 -72 -276 -114 -353 -185 -35 -33 -85
-70 -111 -81 -59 -25 -154 -135 -203 -235 -21 -43 -42 -73 -51 -73 -8 0 -92
38 -187 84 -95 45 -188 89 -207 96 -19 7 -48 18 -65 25 -119 52 -257 86 -317
79 -51 -6 -147 11 -134 23 3 3 25 10 48 14 75 14 182 39 187 45 3 3 -3 12 -13
20 -24 17 -304 20 -370 3 -50 -12 -125 -8 -91 5 11 4 29 12 40 16 42 18 130
30 220 30 52 0 95 4 95 9 0 27 -269 50 -355 31 -27 -6 -66 -13 -86 -15 -20 -2
-55 -13 -77 -24 -44 -23 -62 -26 -62 -12 0 13 182 153 249 190 34 19 60 39 58
45 -2 6 -33 15 -68 19 -58 8 -70 6 -119 -17 -30 -14 -64 -32 -76 -41 -19 -14
-23 -14 -47 5 -21 17 -30 19 -47 10 -11 -6 -20 -17 -20 -26 0 -15 -87 -104
-102 -104 -43 0 32 114 127 196 30 25 55 50 55 55 0 5 -13 9 -28 9 -34 0 -121
-79 -195 -177 -26 -35 -51 -63 -56 -63 -10 0 -21 49 -21 100 0 62 -52 180 -80
180 -5 0 -8 -55 -7 -122z m-181 -91 c12 -18 25 -34 29 -37 12 -10 59 -109 59
-127 0 -10 -25 20 -57 67 -31 47 -69 100 -85 118 -15 18 -28 37 -28 43 0 16
57 -28 82 -64z m698 7 c0 -4 -10 -15 -22 -26 -13 -11 -42 -37 -66 -59 -24 -22
-47 -37 -52 -34 -4 3 0 22 11 44 13 27 31 45 61 59 44 21 68 27 68 16z m-150
-193 c0 -5 -7 -12 -16 -15 -14 -5 -15 -4 -4 9 14 17 20 19 20 6z"/>
<path d="M13038 17960 c-131 -30 -206 -74 -261 -156 -49 -72 -27 -86 46 -30
57 43 89 60 163 85 152 51 320 68 399 41 34 -11 37 -14 20 -21 -63 -24 -85
-35 -85 -40 0 -10 77 -27 175 -39 109 -13 182 -32 260 -66 17 -7 44 -18 60
-24 29 -11 29 -12 11 -26 -11 -8 -42 -14 -68 -14 -27 0 -65 -7 -86 -16 l-37
-17 70 -17 c157 -38 303 -125 408 -240 50 -55 117 -160 102 -160 -6 0 -79 57
-119 93 -11 9 -24 17 -29 17 -11 0 5 -21 66 -85 21 -22 58 -82 83 -133 25 -52
61 -111 80 -132 19 -20 45 -68 59 -105 39 -102 20 -99 -48 8 -35 54 -57 72
-57 46 0 -26 69 -204 126 -326 37 -78 43 -103 20 -84 -8 7 -22 26 -31 44 -41
78 -42 80 -47 59 -3 -11 4 -98 15 -193 17 -147 18 -183 8 -233 -15 -72 -72
-226 -84 -226 -8 0 -5 116 8 260 l5 65 -16 -45 c-8 -25 -19 -61 -24 -80 -13
-58 -122 -363 -138 -388 -13 -21 -123 -103 -186 -139 -25 -15 -59 -17 -54 -3
2 5 28 24 58 42 93 56 66 88 -36 43 -109 -49 -251 -77 -298 -59 -9 3 -16 14
-16 24 0 10 -11 25 -25 34 -14 9 -25 23 -25 32 0 8 -13 20 -29 25 -44 16 -29
39 25 39 43 0 56 4 143 42 58 25 94 50 170 117 59 51 76 81 48 81 -8 0 -22
-10 -33 -22 -27 -30 -162 -117 -193 -124 -14 -3 -51 -15 -82 -25 -112 -38
-117 -20 -15 55 76 57 156 139 156 162 0 25 -17 23 -45 -6 -16 -17 -32 -30
-37 -30 -14 0 -9 26 10 43 37 34 119 236 110 274 -1 5 2 24 6 43 4 19 3 78 -2
130 -6 55 -6 102 -1 111 7 13 3 18 -14 23 -12 3 -28 19 -35 35 -7 17 -47 68
-88 115 -99 113 -98 121 7 58 77 -46 92 -52 108 -43 23 15 -2 40 -67 67 -37
15 -79 36 -94 46 -14 10 -33 18 -42 18 -9 0 -25 5 -36 10 -45 23 -64 33 -97
51 -18 10 -44 19 -56 19 -13 0 -32 7 -43 15 -17 13 -9 14 78 15 54 0 118 -5
143 -12 35 -9 48 -9 57 0 10 10 9 15 -3 27 -22 23 -127 56 -192 62 -32 3 -59
9 -61 12 -2 3 -50 2 -107 -3 -78 -7 -104 -7 -107 2 -6 19 -44 14 -69 -10 l-23
-21 0 26 c0 23 -4 27 -31 27 -35 0 -144 -48 -174 -77 -11 -10 -36 -29 -55 -43
-19 -13 -38 -29 -42 -35 -5 -6 -8 -4 -8 6 0 19 71 131 103 162 31 31 113 79
171 101 34 13 62 17 97 13 45 -6 49 -4 49 15 0 18 -4 20 -37 14 -21 -4 -72
-11 -113 -15 -85 -9 -105 -17 -174 -75 -51 -42 -132 -157 -155 -217 -7 -19
-17 -43 -21 -54 -26 -64 -50 -166 -66 -277 -5 -40 -4 -48 9 -48 9 0 19 9 22
21 7 20 7 20 38 -4 53 -40 287 -278 331 -336 23 -29 63 -82 89 -118 l48 -63
-30 -6 c-70 -14 -63 -74 11 -96 24 -7 53 -17 66 -24 19 -10 20 -13 7 -18 -9
-3 -25 -6 -36 -6 -27 0 -24 -12 15 -58 18 -22 41 -64 50 -92 9 -29 28 -70 42
-92 14 -22 28 -57 31 -77 3 -20 15 -54 25 -76 34 -67 77 -191 133 -380 62
-208 90 -347 82 -407 -4 -28 0 -52 10 -72 12 -23 43 -142 43 -164 0 -2 -14 8
-31 22 -65 55 -69 21 -14 -116 57 -141 71 -161 164 -229 135 -100 168 -104 79
-12 -54 57 -84 100 -75 109 2 3 16 0 31 -5 14 -6 26 -7 26 -2 0 5 -25 62 -54
128 -59 126 -86 231 -86 327 0 33 -5 111 -11 173 -7 62 -9 117 -5 121 4 4 70
7 146 7 158 1 163 3 206 87 24 47 77 94 194 171 62 40 148 144 227 273 87 143
133 291 132 424 -1 69 -2 73 -13 46 -13 -28 -13 -28 -19 -5 -4 14 0 33 8 46 8
12 15 39 16 60 0 30 2 34 8 18 7 -17 11 -13 22 25 17 57 18 155 2 171 -10 10
-14 7 -21 -11 -8 -23 -9 -23 -14 -3 -4 13 1 27 13 37 21 18 24 75 9 161 -5 28
-14 86 -21 130 -18 129 -67 303 -113 401 -88 186 -206 324 -371 432 -108 70
-110 73 -93 83 7 5 33 6 57 3 83 -12 28 33 -109 89 -25 11 -64 27 -87 38 -24
10 -52 19 -62 19 -29 0 -71 18 -71 30 0 5 6 10 13 10 7 0 23 7 35 16 l23 16
-37 20 c-21 11 -69 28 -108 39 -97 25 -374 25 -488 -1z m539 -96 c-3 -3 -12
-4 -19 -1 -8 3 -5 6 6 6 11 1 17 -2 13 -5z m-340 -770 c-3 -3 -12 -4 -19 -1
-8 3 -5 6 6 6 11 1 17 -2 13 -5z m-564 -129 c-3 -9 -8 -14 -10 -11 -3 3 -2 9
2 15 9 16 15 13 8 -4z m1744 -897 c-3 -8 -6 -5 -6 6 -1 11 2 17 5 13 3 -3 4
-12 1 -19z m-1180 -66 c9 -37 -5 -38 -40 -3 -31 31 -32 32 -12 47 18 13 21 13
33 -3 7 -10 15 -28 19 -41z m1143 -42 c0 -16 -38 -88 -50 -95 -5 -3 -10 3 -10
14 0 12 5 21 10 21 6 0 10 9 10 20 0 11 5 20 10 20 6 0 10 7 10 15 0 8 5 15
10 15 6 0 10 -5 10 -10z m-1112 -64 c3 -16 0 -18 -23 -12 -15 4 -34 13 -41 21
-12 12 -9 14 23 11 28 -1 39 -7 41 -20z m1007 -126 c-74 -115 -161 -213 -213
-241 -26 -13 -67 -41 -91 -61 -24 -21 -47 -38 -51 -38 -4 0 -19 -22 -34 -50
-27 -50 -39 -59 -51 -40 -3 6 -18 10 -32 10 -15 0 -36 12 -53 30 -27 29 -27
30 -6 30 12 0 26 4 32 8 5 4 27 14 49 21 38 12 165 71 175 81 3 3 18 12 33 20
57 29 97 79 121 152 3 11 11 15 21 12 22 -9 65 16 65 37 0 9 3 19 8 21 9 4 41
57 49 81 4 11 9 15 15 9 6 -6 -8 -37 -37 -82z m-992 25 c32 -28 34 -35 9 -35
-10 0 -31 14 -47 30 -25 26 -26 30 -9 30 10 0 31 -12 47 -25z m762 -179 c-45
-55 -71 -64 -78 -27 -7 34 7 50 46 49 22 -1 35 6 46 22 8 12 17 18 19 11 2 -6
-13 -31 -33 -55z m-248 -72 c-3 -3 -12 -4 -19 -1 -8 3 -5 6 6 6 11 1 17 -2 13
-5z m-219 -121 c-10 -2 -26 -2 -35 0 -10 3 -2 5 17 5 19 0 27 -2 18 -5z m132
-3 c0 -5 -9 -10 -20 -10 -11 0 -20 5 -20 10 0 6 9 10 20 10 11 0 20 -4 20 -10z
m-155 -141 c14 0 11 -3 -10 -10 -34 -10 -55 -5 -55 12 0 7 9 9 23 5 12 -3 31
-6 42 -7z m252 -5 c-3 -3 -12 -4 -19 -1 -8 3 -5 6 6 6 11 1 17 -2 13 -5z"/>
<path d="M7310 17905 c-8 -2 -69 -9 -135 -14 -66 -5 -128 -13 -137 -16 -25
-10 -22 -41 4 -59 32 -23 16 -33 -92 -55 -107 -22 -213 -54 -250 -76 l-25 -14
35 -1 c19 0 41 -4 48 -9 16 -10 -14 -23 -108 -46 -64 -16 -90 -32 -241 -148
-71 -54 -62 -82 11 -34 84 55 127 53 48 -2 -77 -53 -135 -124 -248 -301 -105
-166 -130 -214 -117 -227 4 -3 21 7 39 22 45 38 48 17 9 -82 -17 -43 -35 -105
-41 -137 -13 -77 -13 -217 1 -309 10 -68 83 -301 101 -321 4 -6 8 -13 8 -16 0
-11 -49 -30 -75 -30 -36 0 -31 -22 14 -71 22 -23 58 -78 80 -123 21 -45 54
-95 73 -112 28 -27 146 -86 228 -115 17 -6 0 -8 -51 -5 -84 5 -110 -4 -94 -30
15 -24 91 -64 121 -64 l26 0 -22 -18 c-21 -17 -22 -21 -9 -56 9 -25 28 -48 55
-67 22 -15 47 -37 55 -48 13 -19 61 -46 229 -131 74 -37 193 -66 223 -54 24 9
30 -58 18 -192 -23 -249 -54 -417 -95 -499 -40 -80 -204 -263 -256 -285 -16
-7 -30 -16 -30 -19 0 -11 133 -69 174 -77 20 -3 36 -12 36 -19 0 -7 -34 -25
-74 -39 -118 -43 -124 -66 -29 -110 32 -15 70 -34 85 -42 17 -9 37 -12 54 -8
19 5 25 4 20 -5 -4 -6 -19 -11 -34 -11 -57 0 -66 -31 -16 -50 l24 -10 -22 -22
c-37 -38 -72 -58 -102 -58 -26 0 -28 -2 -21 -27 7 -29 42 -71 126 -152 29 -28
51 -53 48 -55 -4 -4 -107 16 -146 28 -36 12 -33 -7 10 -54 22 -25 55 -76 73
-115 18 -38 55 -104 83 -145 28 -41 95 -140 148 -220 53 -80 101 -149 105
-155 5 -5 36 -48 71 -95 34 -47 72 -95 84 -107 12 -12 30 -36 39 -53 10 -16
22 -30 26 -30 4 0 8 -7 8 -16 0 -25 228 -246 280 -271 25 -12 71 -33 103 -47
36 -16 82 -48 120 -85 63 -60 192 -151 215 -151 17 0 15 -7 -17 -60 -33 -53
-62 -131 -63 -169 -1 -15 2 -55 6 -91 7 -65 7 -65 -33 -118 -41 -52 -55 -112
-31 -127 16 -10 12 -40 -7 -57 -22 -19 -115 -67 -288 -148 -192 -91 -213 -98
-319 -106 -68 -5 -96 -10 -96 -20 0 -18 23 -39 60 -54 l31 -13 -28 -16 c-15
-10 -66 -32 -113 -50 -104 -39 -114 -45 -166 -90 l-42 -36 -203 -1 c-228 -1
-231 -1 -419 -84 -141 -62 -177 -84 -270 -169 -95 -86 -207 -221 -191 -230 7
-5 3 -18 -11 -41 -96 -157 -139 -277 -177 -495 -21 -121 -23 -181 -6 -195 10
-9 15 -31 15 -74 0 -87 26 -276 50 -360 24 -86 120 -329 154 -390 35 -62 72
-120 88 -137 35 -37 86 -106 92 -125 7 -22 142 -159 236 -239 65 -55 101 -75
192 -103 36 -12 122 -48 190 -79 l123 -58 115 0 c63 0 143 -7 176 -14 71 -15
131 -11 227 14 97 26 95 33 61 -210 -24 -168 -63 -307 -110 -392 -30 -52 -31
-77 -5 -70 13 3 21 -2 25 -15 3 -14 10 -19 20 -15 22 9 27 -5 15 -44 -5 -19
-19 -68 -30 -109 -29 -111 -67 -204 -100 -249 -30 -42 -92 -81 -129 -81 -20 0
-26 -16 -12 -36 12 -19 70 -44 124 -54 104 -20 163 38 184 183 5 38 3 52 -10
66 -13 14 -15 24 -8 38 14 26 29 80 41 143 6 30 18 84 27 120 26 109 28 129
10 148 -12 14 -14 28 -7 67 5 28 14 82 20 120 7 39 16 92 22 118 5 27 9 64 9
83 0 35 3 47 44 219 l25 100 0 -63 c1 -70 14 -92 54 -92 24 0 25 3 24 53 -1
28 4 72 10 97 12 49 65 235 90 315 8 28 17 66 20 85 3 19 9 40 13 45 4 6 10
24 14 40 4 17 13 44 20 60 31 71 36 87 36 110 0 14 5 25 10 25 6 0 10 6 10 13
0 7 9 32 20 55 11 22 20 46 20 52 0 5 4 18 10 28 5 9 30 60 54 112 29 65 55
105 81 128 32 28 37 37 31 63 -6 31 16 89 33 89 5 0 7 9 4 19 -3 11 7 46 22
78 91 194 247 491 295 563 9 14 31 51 49 82 82 147 -58 -21 -242 -288 -86
-127 -104 -155 -162 -272 -23 -45 -44 -80 -47 -77 -8 8 17 87 46 149 35 73 40
96 23 96 -28 0 -35 50 -45 300 -9 222 -9 259 5 285 20 41 52 136 53 158 0 29
44 39 93 22 23 -8 52 -15 63 -15 12 0 27 -7 34 -15 8 -9 29 -15 55 -15 36 0
52 -7 99 -46 31 -25 60 -43 65 -40 13 9 61 -33 61 -53 0 -10 18 -27 43 -41 23
-12 49 -29 57 -35 8 -7 26 -16 40 -20 27 -8 50 -28 50 -43 0 -5 12 -17 26 -27
25 -16 30 -16 79 -1 42 14 61 15 100 6 27 -6 54 -9 62 -6 19 8 16 -18 -6 -62
-10 -20 -33 -84 -51 -142 -18 -58 -49 -152 -70 -210 -53 -145 -59 -182 -63
-364 -3 -122 -7 -162 -18 -170 -19 -14 -39 -61 -39 -89 0 -13 -4 -27 -9 -33
-12 -12 -19 -72 -31 -264 -6 -85 -13 -179 -16 -207 -4 -33 -2 -53 4 -53 6 0
12 6 15 13 3 8 7 6 12 -7 5 -11 3 -27 -4 -37 -10 -17 -7 -22 20 -38 17 -11 47
-22 66 -26 31 -6 39 -2 81 37 26 24 47 49 47 55 0 17 22 37 68 62 20 12 53 30
72 41 20 11 42 20 50 20 9 0 23 5 34 11 29 18 82 3 160 -47 77 -50 139 -66
159 -42 8 11 13 116 17 369 4 336 13 503 34 649 5 36 14 99 20 141 6 42 14 87
20 100 5 13 15 44 22 69 7 25 16 49 21 54 4 6 8 18 8 27 0 10 6 30 14 46 8 15
19 40 25 56 6 16 18 27 30 27 10 0 24 6 30 14 15 18 46 26 62 15 11 -7 11 -9
-2 -9 -21 0 -53 -36 -44 -49 10 -16 84 -13 101 4 26 25 63 29 85 10 17 -16 22
-17 44 -5 22 12 32 11 83 -10 31 -13 79 -41 107 -62 27 -21 59 -37 70 -36 41
3 63 -3 83 -21 12 -10 22 -23 22 -28 0 -5 11 -31 24 -59 25 -53 43 -184 25
-184 -6 0 -13 9 -16 21 -4 12 -11 18 -20 15 -17 -7 -53 14 -53 31 0 7 -9 13
-20 13 -13 0 -18 -5 -14 -15 4 -8 10 -15 15 -15 5 0 9 -4 9 -10 0 -5 14 -30
32 -54 28 -41 30 -48 19 -72 -9 -20 -9 -30 0 -40 9 -11 9 -20 -1 -39 -16 -29
-7 -43 15 -25 9 7 19 10 22 6 4 -4 3 -10 -2 -14 -6 -4 -16 -20 -24 -37 -7 -16
-17 -38 -22 -47 -13 -26 -11 -51 9 -75 21 -26 86 -63 112 -63 10 0 31 -5 45
-12 33 -15 80 0 208 66 78 41 100 48 106 37 5 -8 16 -11 26 -7 10 3 24 1 31
-5 11 -9 14 -7 14 9 0 12 5 24 11 28 6 3 8 17 5 30 -5 17 -2 24 7 24 15 0 109
118 143 180 50 88 67 160 67 275 1 61 -5 135 -13 165 -23 99 -143 325 -207
392 -15 15 -22 28 -16 28 7 0 21 -12 33 -27 39 -50 51 -54 123 -39 106 22 162
44 335 127 89 43 193 86 230 95 88 22 190 71 197 95 4 10 15 19 26 19 10 0 19
5 19 10 0 6 -6 10 -14 10 -8 0 -18 -4 -21 -10 -9 -14 -28 -12 -50 4 -17 12
-16 15 21 54 46 48 105 63 135 36 17 -15 20 -15 46 4 15 11 38 31 51 45 20 21
21 25 8 30 -9 4 -16 12 -16 19 1 20 54 74 89 89 17 8 31 17 31 21 0 5 6 8 13
8 8 0 22 9 32 20 10 11 22 20 26 20 9 0 37 21 68 51 13 12 116 78 178 113 10
6 11 1 3 -19 -13 -34 -13 -45 1 -45 16 0 66 44 62 55 -2 6 14 31 34 57 21 26
46 58 55 70 15 21 18 22 33 7 9 -9 18 -29 18 -44 2 -24 5 -26 32 -20 95 20
157 26 210 20 57 -6 149 -30 170 -45 6 -4 37 -17 70 -29 33 -13 68 -27 77 -32
10 -5 25 -9 35 -9 13 0 14 -3 6 -11 -9 -9 -20 -9 -43 0 -37 12 -85 -3 -59 -20
8 -5 22 -9 33 -9 39 0 164 -53 236 -99 41 -27 98 -63 127 -81 53 -34 60 -50
19 -50 -12 0 -30 -6 -40 -13 -17 -12 -13 -16 39 -42 60 -29 195 -148 183 -160
-4 -4 -24 2 -44 14 -24 14 -40 19 -47 12 -9 -9 32 -44 103 -88 14 -9 49 -43
79 -77 30 -34 77 -86 106 -116 28 -30 86 -97 128 -149 72 -87 76 -95 62 -111
-14 -16 -11 -24 46 -101 85 -115 189 -268 189 -280 0 -21 -21 -7 -46 31 -37
56 -174 142 -174 109 0 -5 21 -37 46 -71 53 -72 85 -133 103 -198 8 -25 20
-63 28 -85 52 -142 74 -249 79 -390 2 -60 1 -101 -2 -90 -3 11 -16 57 -30 102
-17 57 -22 88 -15 105 10 26 -13 81 -48 112 -21 19 -21 19 -21 -3 0 -12 4 -29
10 -39 11 -19 50 -236 50 -279 0 -15 -6 -57 -15 -93 -8 -36 -19 -105 -24 -155
-12 -121 -22 -159 -59 -238 -18 -37 -32 -72 -32 -79 0 -6 -6 -4 -12 5 -12 15
-16 12 -37 -30 -12 -27 -27 -56 -33 -66 -5 -10 -7 -31 -5 -45 2 -15 2 -21 0
-14 -3 6 -12 12 -21 12 -9 0 -30 16 -45 36 -28 34 -30 35 -48 18 -10 -9 -19
-23 -19 -31 0 -7 -6 -16 -14 -19 -8 -3 -12 -13 -9 -23 3 -11 -10 -30 -36 -54
-23 -20 -38 -37 -34 -37 4 0 -9 -11 -28 -26 -19 -14 -33 -31 -32 -37 4 -16
-70 -49 -76 -34 -2 6 6 18 18 28 11 9 21 22 21 27 0 6 10 14 21 17 15 5 18 10
10 15 -17 10 -58 1 -72 -16 -15 -18 -35 -18 -43 1 -3 9 0 15 8 15 19 0 29 32
14 42 -18 11 -19 11 -138 -12 -125 -24 -178 -25 -216 -5 -17 9 -22 15 -13 15
22 0 32 39 13 47 -8 3 -35 -5 -61 -17 -26 -12 -72 -26 -103 -30 -30 -5 -86
-16 -125 -26 -106 -25 -303 -22 -340 6 -5 4 -26 11 -45 15 -36 8 -77 24 -143
56 -22 11 -48 19 -60 19 -13 0 -17 4 -12 9 9 9 75 18 175 25 25 1 53 3 63 4
21 2 23 38 1 46 -9 3 -31 6 -50 6 -19 0 -34 4 -34 9 0 14 -53 29 -75 21 -12
-4 -68 -7 -125 -6 -95 2 -110 5 -155 30 -50 29 -89 65 -80 74 3 3 11 0 17 -6
7 -7 17 -12 23 -12 13 0 35 47 35 77 0 23 -26 43 -47 36 -7 -3 -13 0 -13 5 0
6 6 12 13 15 6 2 9 8 5 12 -11 12 -21 -1 -23 -28 -1 -14 -8 -22 -21 -22 -16 0
-19 6 -17 37 2 22 -3 41 -12 48 -25 21 -24 22 60 56 11 4 56 19 99 34 86 28
103 44 61 60 -41 16 -117 12 -186 -9 -35 -11 -79 -22 -96 -26 -32 -6 -33 -5
-33 24 0 27 -4 32 -31 38 -26 5 -30 9 -25 30 16 59 -49 185 -84 163 -12 -8
-12 -14 -2 -44 8 -22 11 -53 7 -80 -8 -48 6 -86 30 -86 8 0 15 -4 15 -10 0 -5
-8 -10 -19 -10 -62 0 -114 114 -115 252 0 77 2 90 23 111 50 55 343 89 446 53
45 -16 61 -6 42 26 -23 37 -105 63 -226 72 -46 4 -89 10 -95 13 -6 4 -32 8
-58 9 -66 2 -78 18 -78 103 0 170 65 250 224 274 125 19 169 14 329 -41 82
-28 155 -48 163 -45 51 19 -34 81 -171 125 -66 21 -182 48 -207 48 -46 0 -45
21 4 65 66 59 145 83 278 84 119 0 216 -21 312 -70 36 -18 64 -27 69 -22 6 6
-1 15 -16 23 -14 7 -25 17 -25 22 0 32 103 -30 215 -129 38 -35 73 -63 78 -63
15 0 6 31 -10 37 -10 4 -42 33 -72 65 -31 34 -76 70 -107 85 l-54 26 41 19
c23 10 51 18 64 18 21 0 118 -17 225 -39 105 -23 110 -23 110 -9 0 7 -15 23
-32 35 -50 35 -14 39 116 14 62 -12 133 -21 157 -19 l44 3 -68 33 c-87 42
-155 56 -289 57 -59 0 -110 3 -113 7 -4 4 10 15 31 25 32 15 64 18 179 18 77
-1 155 -4 173 -8 23 -5 32 -3 30 4 -9 27 -154 59 -266 59 -132 0 -317 -56
-374 -113 -32 -32 -67 -39 -153 -29 -52 6 -83 16 -118 37 -49 32 -58 55 -32
89 19 25 19 70 0 86 -12 10 -16 9 -21 -3 -5 -14 -8 -14 -25 1 -14 12 -19 31
-20 67 -2 47 -2 46 -9 -18 -4 -37 -12 -73 -17 -78 -13 -13 -33 -4 -33 15 0 7
-9 31 -20 54 -16 32 -28 44 -50 48 -26 6 -30 12 -40 58 -12 55 -70 139 -70
101 0 -23 24 -132 50 -225 10 -36 21 -90 24 -122 3 -31 9 -63 12 -72 5 -12 -1
-16 -24 -16 -30 0 -42 14 -42 51 0 23 -53 130 -75 153 -9 9 -22 16 -28 16 -9
0 -9 -2 0 -8 14 -9 53 -97 53 -120 0 -17 -15 -1 -82 87 -18 24 -41 49 -50 55
-21 13 -36 0 -23 -18 6 -7 31 -44 57 -82 25 -38 58 -84 72 -103 28 -38 34 -71
12 -71 -28 0 -132 -81 -173 -135 -24 -30 -50 -55 -60 -55 -50 0 -176 -117
-221 -207 -30 -57 -42 -145 -31 -217 6 -33 12 -63 15 -68 3 -4 -11 -34 -30
-66 -48 -77 -62 -151 -47 -245 7 -40 9 -91 5 -113 -5 -35 -9 -40 -32 -39 -18
0 -26 -5 -24 -14 4 -19 -27 -51 -44 -44 -10 4 -14 -3 -15 -23 -1 -16 -1 -33 0
-38 1 -4 -2 -13 -7 -20 -13 -16 -7 -179 8 -205 12 -24 -1 -51 -25 -51 -7 0
-16 -12 -20 -27 -5 -23 -1 -32 22 -50 15 -13 33 -23 39 -23 14 0 28 -46 19
-60 -4 -6 -13 -10 -21 -10 -8 0 -26 -11 -39 -25 -20 -19 -25 -34 -25 -72 0
-60 19 -99 45 -96 11 2 26 -1 34 -6 12 -8 12 -12 -2 -26 -21 -20 -22 -45 -2
-71 8 -10 15 -29 15 -41 0 -12 5 -25 10 -28 6 -3 10 -19 10 -34 0 -15 7 -36
15 -47 8 -10 15 -31 15 -45 0 -24 31 -49 60 -49 15 0 12 30 -6 47 -10 10 -14
29 -12 57 4 54 28 59 51 11 9 -20 27 -40 39 -45 17 -6 19 -9 6 -9 -10 -1 -22
-10 -28 -22 -9 -17 -8 -23 7 -35 28 -22 62 -28 89 -15 l25 11 -6 -51 c-5 -37
-4 -49 5 -44 6 4 9 13 6 21 -3 9 2 14 14 14 11 0 20 -3 20 -7 -1 -14 -27 -43
-39 -43 -21 0 -11 -37 19 -68 28 -30 41 -82 21 -82 -36 0 -56 -74 -23 -82 23
-6 98 72 94 97 -2 9 1 22 7 28 6 6 12 22 12 36 1 15 5 5 11 -22 6 -35 5 -53
-3 -63 -16 -19 -3 -32 36 -36 25 -2 31 -8 33 -33 4 -36 29 -66 48 -58 22 8 18
-54 -3 -66 -29 -16 -7 -25 52 -22 21 1 26 4 16 10 -7 5 -10 14 -6 20 5 9 10 9
21 0 11 -9 14 -40 14 -128 1 -116 10 -151 40 -151 9 0 10 11 6 37 -17 96 -18
114 -6 128 6 7 10 24 8 37 -2 15 2 23 12 23 10 0 15 -10 15 -30 1 -31 9 -36
78 -50 15 -3 27 -11 27 -18 0 -6 5 -19 10 -27 8 -13 12 -11 26 8 22 32 53 25
82 -18 13 -19 32 -38 43 -42 10 -4 19 -14 19 -23 0 -8 5 -15 10 -15 6 0 10 11
10 25 0 34 22 32 58 -5 18 -18 41 -30 56 -30 14 0 26 -4 26 -10 0 -5 9 -10 20
-10 30 0 43 -44 37 -122 -4 -50 -2 -70 8 -78 27 -23 33 0 29 125 -3 119 -2
127 19 148 l22 22 10 -67 c12 -83 27 -102 48 -62 8 16 27 40 42 54 32 29 67
94 57 105 -12 12 27 32 53 27 17 -3 25 0 25 10 0 8 18 23 39 33 22 9 41 25 44
34 6 24 116 49 128 30 9 -15 26 -69 40 -129 4 -19 15 -62 24 -95 8 -33 13 -70
10 -82 -6 -25 17 -90 51 -145 13 -20 26 -49 30 -64 l7 -27 -29 17 c-28 17 -94
105 -94 126 0 5 -4 10 -10 10 -23 0 -1 -100 28 -129 7 -8 20 -24 29 -38 15
-23 96 -83 112 -83 5 0 14 -6 20 -14 12 -15 -4 -26 -38 -26 -9 0 -63 -23 -119
-51 -80 -39 -102 -54 -102 -71 0 -21 18 -22 63 -3 27 11 24 -15 -20 -143 -8
-23 -23 -47 -34 -52 -20 -11 -22 -8 -20 26 4 48 -55 32 -132 -36 -28 -25 -53
-40 -62 -36 -19 7 -52 -38 -147 -201 -40 -69 -74 -118 -76 -109 -2 8 10 41 27
71 33 60 37 75 20 75 -26 0 -86 -61 -141 -145 -65 -96 -115 -155 -133 -155 -6
0 -20 -8 -31 -18 -10 -9 -39 -32 -64 -50 -45 -33 -45 -33 -48 -10 -2 13 -8 27
-12 32 -6 6 -56 -37 -124 -105 -103 -103 -115 -118 -121 -159 -7 -44 -61 -160
-75 -160 -3 0 0 30 7 67 27 130 -10 101 -117 -92 -40 -71 -76 -135 -81 -141
-5 -6 -27 -14 -49 -18 -33 -5 -40 -10 -40 -29 -1 -37 -146 -192 -189 -200 -17
-4 -54 -28 -83 -54 -30 -26 -95 -73 -146 -103 -52 -30 -102 -63 -112 -72 -10
-9 -26 -14 -38 -11 -25 6 -169 -73 -180 -99 -2 -4 -12 -8 -23 -8 -10 0 -19 -4
-19 -10 0 -5 -6 -10 -13 -10 -7 0 -23 -9 -35 -20 -12 -11 -24 -20 -28 -20 -3
0 -18 -8 -32 -19 -95 -67 -228 -129 -342 -161 -25 -7 -55 -16 -68 -21 -13 -5
-36 -9 -52 -9 -16 0 -32 -5 -35 -10 -8 -13 -195 -13 -195 0 0 6 -6 10 -12 10
-7 0 -24 6 -39 13 -14 8 -49 17 -78 20 -47 6 -129 27 -236 63 -22 7 -61 16
-87 20 -43 6 -48 4 -48 -13 0 -24 24 -47 70 -67 l35 -15 -60 -1 c-83 0 -152
26 -455 173 -145 70 -191 100 -359 231 -67 53 -131 102 -142 109 -12 7 -40 32
-64 55 -24 24 -49 41 -55 37 -19 -12 -10 -45 23 -79 71 -74 87 -93 81 -99 -11
-11 -209 200 -234 250 -49 96 -114 173 -147 173 -28 0 -30 -22 -4 -58 10 -15
30 -49 44 -77 14 -27 35 -60 47 -72 11 -13 18 -23 15 -23 -10 0 -85 45 -85 50
0 3 -24 31 -53 62 -30 31 -69 87 -88 126 -27 56 -39 71 -56 71 -15 1 -23 -5
-23 -16 0 -29 -23 4 -55 77 -15 36 -41 93 -56 128 -16 34 -29 65 -29 68 0 10
-63 99 -89 125 -14 15 -42 57 -61 95 -19 38 -52 95 -72 127 -20 32 -45 79 -54
105 -17 47 -59 102 -78 102 -5 0 -20 10 -33 21 -18 18 -24 19 -28 7 -3 -8 1
-28 10 -44 15 -30 19 -56 9 -66 -3 -4 -22 12 -42 35 -20 23 -44 49 -52 57 -8
8 -28 33 -45 55 -26 36 -100 125 -147 179 -10 11 -18 28 -18 37 0 10 -11 31
-25 47 -14 17 -25 34 -25 39 0 5 -9 16 -19 25 -17 14 -18 22 -9 63 10 46 9 49
-18 71 -37 30 -97 47 -143 41 -71 -10 -106 -23 -109 -40 -2 -12 1 -15 12 -11
23 9 68 -4 60 -17 -4 -7 -24 -9 -55 -5 -42 6 -48 4 -54 -13 -10 -31 9 -55 64
-81 28 -13 51 -27 51 -31 0 -4 8 -16 18 -25 16 -17 16 -18 0 -11 -27 10 -24
-39 2 -53 12 -6 36 -28 56 -48 29 -31 33 -42 29 -69 -8 -44 -45 -124 -125
-268 -97 -174 -150 -282 -150 -304 0 -17 5 -19 38 -14 20 3 40 11 44 17 4 6
10 8 13 4 4 -3 -14 -25 -38 -47 -34 -31 -64 -80 -121 -190 -74 -145 -87 -181
-66 -181 18 0 63 33 104 78 39 43 56 50 38 15 -42 -77 -73 -176 -93 -293 -30
-172 -39 -255 -39 -354 0 -127 10 -173 44 -205 15 -14 29 -44 36 -75 22 -98
59 -206 70 -206 18 0 39 -32 56 -87 9 -32 21 -62 25 -68 4 -5 19 -49 32 -97
31 -106 34 -110 57 -103 15 5 20 -1 25 -27 4 -18 5 -56 3 -83 l-3 -50 -168
-83 c-157 -78 -174 -89 -263 -175 -238 -227 -317 -447 -234 -654 30 -75 160
-282 200 -318 13 -12 20 -31 20 -56 0 -42 3 -43 85 -55 74 -10 115 -30 160
-78 l40 -43 146 -7 c81 -3 173 -3 205 0 37 4 102 0 173 -11 117 -18 268 -17
501 4 147 13 401 86 564 161 35 17 71 30 80 30 32 0 347 78 395 97 52 22 136
108 160 163 34 79 55 320 29 336 -4 3 -8 24 -7 47 0 23 3 36 6 28 3 -7 18 36
34 95 15 60 55 192 88 294 58 175 64 187 110 235 27 27 57 65 66 84 10 19 65
83 124 141 136 137 165 150 290 130 47 -7 111 -16 141 -21 101 -14 272 -9 408
11 196 29 267 24 287 -22 6 -12 29 -36 51 -53 27 -19 41 -37 40 -50 0 -11 4
-19 10 -18 6 1 14 -13 17 -32 4 -22 19 -46 44 -69 35 -31 41 -44 62 -133 38
-163 41 -173 55 -173 18 0 29 -32 56 -173 21 -108 22 -129 13 -242 -14 -163 4
-259 68 -371 12 -21 31 -55 41 -74 40 -73 48 -84 108 -152 69 -77 82 -84 224
-124 54 -15 126 -41 160 -57 46 -23 83 -32 151 -37 75 -7 104 -15 175 -48 173
-82 165 -81 577 -83 323 -1 377 0 443 16 65 16 86 16 160 6 101 -14 159 -5
260 39 38 17 90 34 115 39 25 5 54 16 65 26 18 16 20 46 11 148 -1 4 -23 7
-49 7 -47 0 -94 21 -80 36 14 13 98 4 124 -13 33 -21 77 -4 73 30 -1 12 1 29
4 37 16 44 18 112 2 136 -15 23 -14 25 10 36 30 14 32 24 4 33 -16 5 -19 12
-15 31 9 34 -12 238 -31 304 -40 142 -122 262 -244 360 -146 117 -187 166
-204 249 -5 23 -4 31 4 27 6 -4 14 1 17 11 25 71 104 234 137 281 22 31 49 82
59 112 11 30 35 84 53 120 25 49 40 100 59 207 29 160 31 195 14 226 l-11 22
-11 -27 c-9 -21 -12 17 -12 172 -1 147 2 197 11 194 6 -3 17 7 25 21 11 21 12
34 1 73 -7 26 -19 51 -27 55 -20 11 -17 33 7 50 20 15 20 17 -56 243 -42 126
-92 270 -112 319 -48 123 -102 257 -113 276 -5 11 -2 19 10 27 22 14 45 83 60
180 15 106 37 140 120 190 20 11 46 32 60 47 23 24 23 28 11 73 -6 26 -18 53
-25 60 -11 11 -8 18 15 42 16 16 29 34 29 40 0 6 -15 26 -32 44 -53 51 -118
128 -118 139 0 6 19 8 45 5 29 -4 51 -1 62 8 17 13 17 13 0 14 -57 1 -110 67
-135 170 -6 25 -14 56 -17 70 -7 28 -21 131 -35 260 -5 47 -12 98 -16 114 -5
23 -2 32 15 45 l21 16 -26 39 c-16 23 -27 54 -28 75 l-1 36 85 23 c47 13 117
35 155 49 39 14 111 40 160 57 99 35 128 52 224 135 157 136 250 326 361 739
41 155 41 268 -1 537 -5 33 -12 81 -15 108 -4 26 -11 50 -15 53 -5 3 -9 22 -9
43 0 20 -8 55 -19 77 -38 79 -37 84 8 84 47 0 49 7 21 59 -10 20 -34 72 -51
116 -18 44 -48 107 -66 140 -18 33 -55 100 -81 149 -83 158 -187 306 -265 378
-58 55 -68 68 -50 68 12 0 38 -10 58 -21 96 -57 25 24 -150 171 -128 108 -141
130 -77 135 65 5 54 22 -48 78 -36 19 -91 51 -124 71 -50 30 -138 71 -230 106
-26 10 -26 10 -6 30 11 11 17 26 14 33 -3 8 -51 31 -107 52 -139 51 -258 109
-342 165 -38 26 -91 59 -116 74 l-47 27 19 61 c21 71 20 75 -54 161 -39 44
-48 60 -39 69 17 17 15 94 -3 111 -12 12 -13 34 -8 111 l6 96 74 38 c102 52
245 155 317 228 71 70 172 209 221 303 19 37 68 108 109 159 l74 94 7 81 c5
60 15 102 40 157 18 41 36 86 40 100 4 14 21 56 37 94 27 62 29 76 23 132 -5
49 -10 62 -21 57 -8 -3 -14 -3 -14 -1 0 13 32 68 40 68 4 0 10 8 13 18 4 9 26
55 51 102 50 92 56 128 28 153 -23 21 -78 21 -112 2 -32 -18 -50 -19 -50 -1 0
22 -53 29 -91 13 -19 -8 -60 -23 -91 -32 -37 -12 -58 -24 -58 -33 0 -13 16
-14 103 -9 56 3 110 9 120 12 69 27 -82 -131 -248 -259 -32 -24 -35 -30 -21
-38 24 -14 133 2 160 23 13 10 43 46 67 79 24 34 54 73 66 88 13 15 23 30 23
35 0 4 5 7 10 7 6 0 10 -12 9 -27 -1 -16 2 -40 6 -55 7 -26 5 -28 -21 -28 -16
-1 -38 -8 -49 -18 -45 -39 -105 -116 -105 -136 0 -43 -217 -292 -237 -272 -3
3 14 33 38 68 23 35 53 78 66 97 32 47 29 60 -4 19 -15 -18 -30 -35 -33 -38
-55 -51 -160 -202 -160 -231 0 -20 3 -21 58 -16 31 3 68 8 82 12 21 6 17 0
-21 -36 -25 -24 -59 -50 -75 -58 -16 -7 -36 -17 -44 -21 -8 -4 -17 -17 -18
-30 l-4 -23 27 21 c14 11 33 18 40 16 29 -11 115 67 196 179 90 125 179 256
179 266 0 6 5 11 10 11 6 0 10 7 10 15 0 8 5 15 10 15 6 0 10 7 10 15 0 8 5
15 10 15 13 0 13 -1 -6 -38 -8 -17 -18 -48 -21 -69 -3 -21 -21 -66 -40 -101
-22 -43 -33 -77 -33 -105 0 -40 -3 -44 -63 -88 -79 -59 -170 -117 -201 -128
-32 -13 -96 -70 -96 -87 0 -20 -59 -83 -84 -90 -12 -3 -42 -33 -67 -67 -24
-33 -61 -83 -81 -111 -59 -78 -48 -126 17 -86 l35 22 -21 -36 c-35 -59 -77
-89 -115 -81 -29 5 -37 1 -61 -26 -32 -36 -114 -101 -120 -95 -3 2 3 25 11 50
9 26 16 56 16 66 0 30 -33 25 -52 -7 -22 -37 -94 -110 -149 -152 -24 -19 -38
-28 -31 -21 28 31 8 74 -24 52 -6 -4 -25 -28 -42 -53 -39 -58 -113 -122 -149
-130 -16 -4 -36 -10 -45 -14 -12 -5 -17 -1 -20 16 -7 47 -30 45 -106 -12 -39
-30 -83 -62 -96 -72 -14 -9 -31 -29 -38 -45 -7 -15 -38 -41 -68 -59 -30 -17
-70 -43 -87 -58 -22 -18 -33 -22 -33 -13 0 15 33 48 93 92 31 23 50 56 32 56
-15 0 -75 -30 -75 -37 0 -5 -17 -17 -37 -28 -21 -11 -40 -23 -43 -26 -10 -13
-120 -58 -156 -63 -20 -4 -41 -9 -46 -12 -13 -8 -39 16 -31 30 9 13 15 46 8
46 -16 0 -57 -27 -70 -47 -19 -28 -35 -22 -35 13 0 13 -4 24 -8 24 -4 0 -42
-31 -83 -70 -41 -38 -80 -70 -86 -70 -7 0 -13 -4 -13 -9 0 -5 -8 -11 -17 -14
-10 -4 -36 -17 -58 -30 -62 -36 -101 -41 -120 -14 -13 18 -17 20 -25 7 -5 -8
-12 -11 -16 -8 -10 10 15 66 55 123 71 101 91 134 120 189 16 30 26 58 21 61
-12 8 -84 -59 -111 -102 -12 -19 -40 -48 -62 -64 -22 -16 -68 -62 -101 -102
-107 -128 -143 -161 -218 -201 -85 -45 -145 -78 -177 -97 -19 -12 -23 -12 -32
3 -9 17 -11 17 -37 1 -15 -10 -29 -20 -32 -24 -3 -4 -34 -9 -70 -12 -163 -14
-195 -15 -209 -4 -8 7 -33 13 -55 13 -61 3 -114 12 -186 35 -161 51 -216 83
-430 242 -189 142 -268 223 -320 331 -45 93 -56 106 -64 78 -9 -27 38 -146 89
-225 25 -39 45 -74 45 -79 0 -9 -52 -1 -92 14 -15 5 -32 7 -37 3 -14 -8 -14
-52 -1 -60 17 -10 11 -23 -7 -18 -31 8 -56 32 -57 54 -1 17 -10 25 -33 31 -18
5 -33 13 -33 18 0 13 -37 13 -45 -1 -5 -7 -12 -6 -23 4 -23 20 -79 20 -86 0
-4 -9 0 -21 9 -27 10 -7 12 -16 5 -26 -7 -12 -12 -11 -27 5 -33 36 -106 91
-263 195 -85 57 -176 120 -201 142 -43 35 -79 49 -79 30 0 -26 78 -113 140
-155 79 -55 93 -79 30 -50 -79 35 -120 57 -137 72 -10 9 -34 23 -53 31 -19 7
-41 18 -48 23 -8 7 -16 7 -23 0 -7 -7 5 -23 38 -49 26 -22 59 -50 73 -62 14
-13 49 -42 78 -64 56 -43 70 -62 25 -33 -117 75 -253 190 -253 214 0 6 -5 11
-11 11 -5 0 -30 20 -55 45 -24 25 -53 45 -65 45 -19 0 -20 -4 -15 -35 4 -19 5
-35 2 -35 -10 0 -66 65 -66 78 0 6 7 12 15 12 8 0 15 9 15 20 0 24 -4 25 -25
4 -15 -15 -19 -13 -61 30 l-44 46 0 -33 c0 -30 10 -48 86 -155 17 -23 14 -39
-5 -27 -6 3 -42 43 -80 88 -38 45 -83 98 -101 117 -17 19 -40 52 -52 73 -12
20 -28 37 -35 37 -7 0 -13 8 -13 17 0 15 -2 15 -14 -2 -11 -16 -11 -21 0 -33
8 -7 14 -25 14 -40 l0 -27 -18 27 c-26 40 -123 127 -150 134 -27 8 -44 37 -47
80 -2 31 -33 84 -67 115 -10 9 -18 20 -18 24 0 4 -44 48 -97 98 -167 159 -216
207 -210 207 4 0 36 -15 72 -32 69 -34 96 -32 103 6 5 25 -13 42 -81 74 -74
35 -140 94 -135 119 3 14 13 18 54 18 57 0 84 19 84 57 0 33 -27 60 -107 107
-118 69 -117 67 -29 74 84 7 116 19 116 43 0 23 -62 44 -137 45 -71 2 -108 13
-97 30 7 11 46 1 56 -15 5 -7 8 -4 8 7 0 11 26 51 58 90 83 104 105 142 89
155 -10 8 -23 5 -53 -13 -27 -17 -54 -24 -89 -24 -57 -1 -147 20 -152 34 -1 6
26 29 62 52 68 45 134 119 165 187 10 23 28 50 39 60 28 26 26 38 -4 26 -21
-8 -25 -7 -25 10 0 10 8 27 18 36 16 17 16 18 -1 11 -10 -4 -22 -7 -27 -7 -4
0 -28 -20 -53 -45 -41 -40 -87 -59 -87 -37 0 13 48 56 65 58 18 3 45 29 45 44
0 7 7 10 15 6 8 -3 15 -1 15 4 0 6 15 31 33 57 19 27 42 68 51 93 10 25 23 59
30 75 30 71 36 87 36 105 0 39 -27 22 -70 -45 -29 -45 -31 -47 -27 -20 25 143
37 245 47 395 27 410 62 585 151 752 5 10 9 26 9 37 0 19 52 71 71 71 5 0 9 7
9 16 0 11 5 14 17 10 20 -8 63 30 63 56 0 24 -22 23 -45 -2 -10 -11 -22 -20
-28 -20 -13 0 -1 84 13 88 25 9 42 65 36 115 l-7 50 50 47 c30 28 51 57 51 69
0 12 6 21 13 21 17 0 57 61 57 88 0 23 43 68 101 108 20 14 51 43 69 66 29 36
35 39 45 24 22 -30 51 -19 83 32 16 26 51 69 78 96 47 48 48 49 26 59 -22 10
-30 27 -12 27 6 0 10 9 10 20 0 14 9 21 36 26 52 10 157 124 113 124 -18 0
-95 -57 -140 -105 -48 -49 -63 -53 -97 -29 -22 15 -31 64 -12 64 20 0 9 34
-36 120 -25 48 -65 107 -88 130 -84 87 -193 141 -281 139 -39 -1 -39 -1 -10
-9 152 -39 275 -148 275 -244 0 -25 -3 -46 -7 -46 -5 0 -24 17 -43 36 -36 37
-157 114 -178 114 -7 0 -12 -7 -12 -15 0 -12 -19 -15 -109 -15 -63 0 -112 -4
-116 -10 -3 -5 2 -10 12 -10 24 -1 88 -36 77 -42 -5 -3 -39 -6 -75 -6 -118 -3
-317 -51 -392 -95 -123 -72 -237 -266 -237 -402 0 -50 14 -66 51 -58 25 5 29
2 29 -16 0 -11 -4 -21 -8 -21 -5 0 -16 -17 -25 -37 -52 -126 -44 -204 29 -269
42 -37 47 -45 48 -89 2 -44 7 -52 47 -87 65 -57 243 -137 306 -138 40 0 54
-10 43 -30 -22 -40 -35 -39 -223 28 -54 19 -100 32 -103 29 -19 -19 146 -137
192 -137 8 0 14 -4 14 -10 0 -13 -42 -13 -77 1 -15 6 -37 15 -48 19 -11 4 -41
17 -68 29 -58 26 -80 27 -75 4 5 -29 67 -63 114 -63 25 0 59 -9 79 -20 20 -11
46 -20 60 -20 13 0 26 -4 29 -9 8 -12 -32 -21 -69 -16 -16 3 -59 7 -95 11 -63
6 -153 29 -177 47 -8 6 -13 0 -15 -19 -2 -21 -10 -30 -32 -35 -40 -11 -114 9
-158 43 -20 15 -48 28 -62 28 -23 0 -44 12 -81 48 -8 6 -17 12 -22 12 -5 0
-15 9 -23 20 -8 11 -18 20 -22 20 -7 0 -35 21 -62 46 -6 6 -18 13 -26 17 -11
4 -11 6 -2 6 7 1 33 -12 57 -29 24 -16 48 -30 54 -30 5 0 16 -8 23 -18 13 -19
44 -37 111 -66 50 -21 50 -21 43 15 -6 33 -15 43 -66 79 -54 37 -169 151 -176
174 -4 12 -15 33 -25 48 -11 14 -19 32 -19 39 0 17 40 -21 51 -48 10 -27 44
-31 53 -7 4 9 9 14 13 11 11 -11 63 34 63 54 0 11 -9 37 -20 57 -10 20 -22 49
-24 63 -7 33 -43 79 -62 79 -8 0 -19 -10 -23 -22 -9 -23 -9 -23 -16 4 -8 31
-2 114 9 141 10 22 -7 22 -29 0 -13 -12 -19 -13 -24 -4 -12 19 9 124 28 141
10 9 20 31 23 50 4 19 8 42 10 50 2 10 -7 16 -29 18 -26 3 -35 -2 -50 -25 -9
-15 -21 -31 -26 -34 -5 -3 -11 -21 -14 -40 -11 -72 -22 -63 -23 18 0 45 5 85
10 88 6 3 10 13 10 22 0 8 15 47 34 86 19 40 39 92 46 117 7 25 16 50 21 56 4
6 10 26 11 45 3 31 0 34 -28 39 -27 4 -30 8 -24 25 4 12 15 27 24 34 9 7 16
18 16 23 0 7 51 75 125 166 46 57 260 212 291 212 7 0 30 11 50 25 25 17 50
25 80 25 74 0 80 10 22 37 -29 13 -69 28 -88 32 l-35 8 40 12 c22 6 92 19 157
27 l116 17 76 -27 c85 -29 116 -32 116 -12 0 18 -13 28 -88 66 -44 22 -61 35
-53 43 10 10 25 7 246 -53 38 -10 71 -17 74 -14 8 8 -53 65 -94 87 l-40 22 40
3 c59 5 211 -48 287 -100 45 -31 64 -2 32 48 -25 38 -11 39 52 4 111 -61 196
-132 187 -156 -3 -8 -1 -14 5 -14 5 0 29 -18 52 -41 23 -22 45 -38 48 -34 4 4
7 34 7 68 0 73 -33 150 -93 218 -43 48 -69 48 -78 1 l-6 -29 -81 24 c-45 14
-93 27 -107 30 -14 3 -29 9 -35 13 -27 21 -283 56 -325 45z m650 -1099 c24
-26 22 -52 -5 -62 -20 -8 -21 -7 -29 44 -7 48 1 52 34 18z m-1110 -411 c1
-101 18 -141 100 -220 34 -33 70 -77 81 -97 10 -20 24 -40 30 -43 14 -9 69
-86 69 -96 0 -27 -152 71 -223 144 -26 27 -54 62 -63 78 -19 37 -35 202 -23
243 5 17 9 47 9 66 0 26 3 31 10 20 5 -8 10 -51 10 -95z m-503 -157 c-3 -8 -6
-5 -6 6 -1 11 2 17 5 13 3 -3 4 -12 1 -19z m873 -507 c0 -6 -4 -13 -10 -16 -5
-3 -10 1 -10 9 0 9 5 16 10 16 6 0 10 -4 10 -9z m-428 -279 c-2 -10 4 -9 20 2
30 21 61 22 34 1 -15 -11 -16 -15 -5 -15 8 0 23 -9 32 -21 l18 -21 -63 6
c-121 10 -150 17 -137 32 6 8 20 14 30 14 10 0 21 5 24 11 9 14 51 6 47 -9z
m278 -1217 c0 -8 -7 -15 -15 -15 -13 0 -14 3 -3 15 16 18 18 18 18 0z m-79
-66 c-13 -11 -26 -17 -29 -14 -7 6 29 34 43 34 6 0 -1 -9 -14 -20z m49 -379
c-13 -23 -58 -55 -67 -47 -11 12 6 34 39 50 42 21 41 21 28 -3z m6478 -791
c-13 -17 -42 -61 -65 -97 -24 -37 -43 -60 -43 -51 0 20 23 69 33 69 4 0 7 7 7
15 0 22 -14 18 -46 -14 -25 -25 -116 -95 -216 -168 -17 -13 -36 -23 -41 -23
-16 0 128 131 230 208 26 21 50 40 51 45 2 4 14 7 26 7 13 0 31 9 41 20 31 34
50 25 23 -11z m-6144 -238 c56 -45 146 -137 146 -150 0 -8 -28 14 -62 48 -35
35 -78 75 -95 88 -18 14 -33 30 -33 35 0 10 12 4 44 -21z m5880 -152 c-25 -36
-65 -72 -155 -138 -17 -12 -19 -12 -14 1 3 8 16 21 28 27 12 7 54 45 92 86 39
40 72 71 74 69 2 -2 -9 -22 -25 -45z m-224 -189 c0 -5 -5 -10 -11 -10 -5 0 -7
5 -4 10 3 6 8 10 11 10 2 0 4 -4 4 -10z m-30 -24 c0 -2 -7 -7 -16 -10 -8 -3
-12 -2 -9 4 6 10 25 14 25 6z m-4866 -178 c7 -5 6 -8 -2 -8 -19 0 -42 25 -42
47 0 14 3 13 17 -7 9 -14 22 -28 27 -32z m4636 32 c0 -5 -7 -10 -15 -10 -8 0
-15 5 -15 10 0 6 7 10 15 10 8 0 15 -4 15 -10z m-4186 -275 c11 -9 14 -15 7
-15 -7 0 -19 7 -27 15 -20 19 -5 19 20 0z m61 -35 c-3 -5 -12 -7 -20 -3 -21 7
-19 13 6 13 11 0 18 -4 14 -10z m335 6 c0 -3 -4 -8 -10 -11 -5 -3 -10 -1 -10
4 0 6 5 11 10 11 6 0 10 -2 10 -4z m2986 -223 c13 -17 15 -17 28 0 20 26 49
20 105 -20 9 -7 -44 -43 -63 -43 -30 0 -7 -16 44 -29 53 -14 58 -15 88 -6 30
10 28 -8 -4 -25 -14 -8 -50 -37 -80 -64 -58 -54 -71 -83 -31 -70 29 9 115 53
149 76 14 10 33 18 43 18 31 0 -15 -45 -102 -100 -46 -28 -83 -58 -83 -66 0
-8 3 -14 6 -14 20 0 170 88 229 135 179 140 254 195 267 195 7 0 26 -18 42
-40 16 -22 32 -38 34 -35 12 12 42 -19 57 -60 l18 -45 -39 -38 c-50 -50 -151
-132 -162 -132 -5 0 -17 -9 -27 -20 -10 -11 -22 -20 -27 -20 -6 0 -35 -18 -66
-39 -98 -67 -264 -173 -347 -221 -82 -47 -268 -140 -280 -140 -9 0 -110 -48
-119 -57 -4 -5 -29 -8 -54 -9 -26 0 -74 -10 -106 -23 -70 -26 -204 -48 -232
-37 -17 7 -16 9 11 21 90 39 158 65 172 65 23 0 120 35 168 61 l40 21 -64 -6
c-36 -3 -79 -10 -95 -16 -63 -20 -385 -89 -488 -105 -120 -18 -203 -13 -218
14 -13 25 -3 35 75 73 80 40 112 52 175 68 25 7 77 27 115 45 39 17 84 35 100
39 38 9 65 33 65 58 0 29 -57 22 -207 -24 -35 -11 -67 -17 -72 -13 -6 3 -24
-1 -40 -10 -17 -8 -41 -15 -55 -15 -13 0 -43 -10 -65 -22 -28 -15 -44 -19 -51
-12 -15 15 29 56 76 73 22 7 63 24 92 37 29 13 55 24 58 24 18 0 138 67 173
96 50 43 46 59 -9 33 -21 -10 -43 -19 -48 -19 -4 0 -89 -33 -188 -74 -233 -96
-246 -102 -332 -142 -40 -19 -86 -37 -102 -41 -27 -5 -30 -3 -30 21 0 14 4 26
9 26 6 0 36 23 68 51 90 79 176 141 287 207 122 73 323 177 391 204 28 11 66
26 85 35 58 25 72 31 150 58 113 40 226 72 315 89 44 8 89 17 100 19 35 8 38
7 51 -10z m997 -300 l32 -18 -74 -3 c-73 -3 -100 6 -87 27 11 17 94 13 129 -6z
m-2856 -309 c20 -13 27 -12 63 6 58 30 66 27 74 -27 4 -27 11 -73 15 -103 7
-41 5 -61 -5 -77 -8 -13 -14 -49 -14 -83 l0 -60 -36 0 c-20 0 -52 -9 -71 -21
-18 -12 -40 -18 -48 -15 -18 6 -75 -12 -75 -25 0 -5 -5 -9 -10 -9 -19 0 -50
83 -50 136 0 50 -21 96 -37 81 -4 -5 -8 -60 -8 -123 0 -63 -3 -114 -6 -114 -4
0 -16 20 -28 45 -42 90 -21 237 50 341 46 68 123 88 186 48z m275 -44 c20 -41
25 -204 7 -244 -19 -41 -39 -41 -39 0 0 20 -15 68 -36 110 -38 79 -38 87 -1
142 27 40 47 37 69 -8z m1708 -162 c0 -7 -4 -19 -9 -27 -7 -11 -11 -10 -20 6
-5 11 -7 23 -4 27 11 11 33 7 33 -6z m-4572 -14 c29 -8 28 -24 -2 -24 -29 0
-53 -24 -35 -36 28 -17 83 -11 106 12 13 13 27 24 32 24 12 0 31 -48 31 -80 0
-33 19 -40 40 -15 18 21 23 19 44 -17 9 -18 31 -44 47 -57 25 -20 34 -22 54
-13 15 7 26 8 30 2 4 -6 19 -10 35 -10 40 0 73 -42 59 -76 -12 -33 -12 -121 1
-129 6 -3 10 -21 10 -40 0 -38 29 -66 61 -58 14 4 19 0 19 -13 0 -11 7 -80 15
-154 32 -298 44 -745 20 -745 -5 0 -14 25 -19 55 -5 30 -11 48 -13 39 -2 -9
-22 -31 -43 -48 -22 -18 -47 -45 -56 -62 -8 -17 -20 -29 -26 -27 -13 5 -35
-14 -61 -52 -24 -34 -21 -43 8 -24 23 15 25 15 25 -1 0 -10 -19 -39 -42 -65
-24 -26 -60 -68 -80 -94 -33 -42 -38 -45 -48 -29 -9 15 -10 13 -7 -12 2 -16 2
-24 0 -17 -7 19 -16 14 -41 -22 -20 -30 -145 -153 -218 -216 -54 -47 -92 -70
-113 -70 -11 0 -26 -9 -33 -20 -16 -25 -42 -26 -66 -2 -9 9 -34 18 -55 20 -21
1 -47 7 -57 12 -13 7 -20 6 -23 -3 -2 -6 -8 -9 -11 -5 -10 8 30 48 48 48 8 0
18 5 21 10 3 6 15 10 25 10 10 0 27 11 38 25 11 14 26 25 35 25 18 0 67 48 67
66 0 36 -53 28 -102 -15 -40 -35 -110 -71 -137 -71 -11 0 -22 -4 -25 -9 -10
-15 -147 -23 -206 -12 -154 28 -224 55 -294 113 l-38 31 6 63 c4 35 18 87 31
116 14 29 25 67 25 83 0 17 7 39 16 50 8 11 19 36 25 57 5 21 21 45 35 55 14
10 33 25 43 33 9 9 38 28 64 43 53 31 56 49 11 57 l-29 5 24 17 c28 20 99 48
201 78 41 13 83 27 92 31 35 17 190 10 248 -11 62 -23 91 -20 69 6 -9 12 -10
20 -2 33 14 23 0 46 -22 37 -29 -11 -55 3 -55 30 0 17 -10 30 -32 44 -40 24
-48 25 -48 4 0 -8 -5 -12 -11 -9 -7 5 -3 15 10 29 12 12 21 27 21 34 0 6 10
18 22 26 17 12 26 13 42 4 12 -7 48 -17 81 -23 l60 -10 66 -100 c93 -140 100
-138 78 22 l-12 82 47 98 c48 99 101 174 137 194 47 25 75 -16 103 -150 13
-60 13 -81 1 -149 -29 -165 -79 -242 -158 -242 -63 0 -54 -56 14 -90 57 -29
52 -59 -13 -81 -62 -20 -64 -23 -34 -47 30 -23 33 -44 10 -63 -21 -17 -164
-230 -193 -286 -12 -24 -17 -43 -13 -43 5 0 46 31 91 68 54 45 89 83 105 114
13 25 33 60 45 76 11 17 21 33 21 38 0 4 11 21 24 38 32 42 131 268 173 396
28 88 34 120 35 200 1 121 -16 162 -118 272 -41 45 -74 84 -74 88 0 18 -179
277 -225 325 -39 42 -162 105 -203 105 -60 0 -66 35 -9 59 17 7 50 21 72 32
45 20 51 21 83 13z m3695 -111 c-7 -2 -19 -2 -25 0 -7 3 -2 5 12 5 14 0 19 -2
13 -5z m-856 -25 c-3 -8 -6 -5 -6 6 -1 11 2 17 5 13 3 -3 4 -12 1 -19z m800
-4 c4 -13 -119 -34 -199 -34 -71 0 -50 19 39 36 80 14 155 14 160 -2z m-4022
-45 c137 2 258 -21 329 -63 49 -29 172 -157 222 -231 19 -27 34 -62 34 -77 0
-15 7 -31 17 -36 15 -9 14 -11 -4 -21 -12 -6 -31 -27 -43 -48 l-22 -38 -29 60
c-16 33 -40 97 -54 143 -33 107 -40 110 -175 77 -19 -5 -40 3 -87 34 -104 70
-176 53 -229 -55 -15 -30 -29 -53 -31 -50 -3 2 -15 24 -28 48 -12 23 -40 57
-60 73 -35 28 -42 30 -126 30 -119 0 -124 -5 -124 -128 0 -51 4 -108 9 -127
l9 -34 -29 33 c-56 62 -174 72 -231 19 -37 -34 -73 -94 -73 -122 0 -22 60
-131 101 -185 35 -44 22 -58 -18 -19 -50 48 -99 68 -171 68 -111 0 -157 -61
-150 -200 4 -79 45 -168 96 -208 59 -47 92 -80 92 -92 0 -26 -35 -20 -109 19
-105 54 -195 58 -157 6 10 -14 12 -41 8 -100 -4 -78 -3 -85 28 -141 39 -72 60
-96 77 -90 9 4 13 -3 13 -20 0 -50 97 -164 173 -204 26 -13 47 -28 47 -31 0
-4 10 -9 23 -13 12 -3 34 -17 49 -31 15 -14 33 -25 40 -25 22 -1 51 -27 38
-35 -8 -5 -8 -11 1 -21 17 -21 -29 -19 -52 2 -16 15 -20 14 -40 -5 -28 -26
-39 -27 -39 -1 0 14 -15 26 -55 45 -56 25 -58 29 -55 77 2 36 -14 43 -30 13
-7 -14 -17 -25 -22 -25 -11 0 -10 18 2 25 13 8 13 62 0 70 -6 3 -13 -1 -17
-11 -6 -15 -7 -14 -15 5 -4 12 -12 19 -18 16 -13 -8 -13 -35 0 -35 15 0 12
-50 -4 -66 -13 -12 -17 -12 -28 1 -40 47 -43 50 -46 33 -7 -34 -62 -31 -62 3
0 10 5 19 10 19 18 0 11 18 -9 25 -15 5 -20 15 -19 45 0 39 -41 113 -69 124
-18 7 -17 -45 2 -80 8 -16 15 -37 15 -47 0 -10 9 -36 21 -58 11 -23 19 -54 17
-72 l-3 -31 -15 30 c-8 16 -22 40 -31 54 -22 34 -80 203 -90 265 -5 28 -14 79
-20 115 -16 82 -17 293 -2 343 6 21 29 66 51 99 36 55 44 88 22 88 -5 0 -15 7
-23 15 -22 21 -7 75 37 138 66 94 80 111 134 162 44 40 53 54 49 74 -6 28 6
57 32 81 81 76 152 128 235 170 54 28 118 62 143 76 90 54 145 65 288 58 72
-3 184 -5 250 -5z m1738 -6 c-7 -2 -19 -2 -25 0 -7 3 -2 5 12 5 14 0 19 -2 13
-5z m74 -24 c53 -22 73 -32 73 -40 0 -10 -43 3 -100 29 -33 15 -39 21 -23 21
12 1 35 -4 50 -10z m7 -67 c44 -21 96 -45 114 -53 30 -13 43 -29 23 -29 -18 0
-171 68 -222 99 -58 36 -5 25 85 -17z m722 -44 c-82 -86 -141 -165 -196 -258
-59 -99 -66 -114 -89 -190 -13 -41 -27 -79 -31 -85 -4 -5 -11 -32 -14 -58 -4
-26 -16 -67 -26 -90 -11 -24 -16 -52 -13 -68 3 -15 0 -30 -6 -33 -6 -4 -11
-22 -11 -39 0 -56 -10 -78 -34 -75 -18 3 -21 11 -24 62 -2 32 2 64 7 69 6 6
11 30 11 53 0 24 13 74 30 115 16 41 30 80 30 86 0 14 74 203 97 248 9 17 20
39 26 50 19 38 32 60 38 65 3 3 16 21 30 41 24 36 119 127 174 167 17 12 41
22 55 22 22 0 16 -9 -54 -82z m1019 25 c251 -128 413 -282 476 -453 21 -56 24
-83 24 -191 l0 -125 -49 -100 c-41 -84 -61 -111 -132 -181 -130 -127 -304
-206 -384 -173 -37 15 -38 30 -2 72 34 39 104 173 128 243 22 67 30 241 14
314 -21 94 -52 149 -188 339 -163 225 -172 242 -137 242 47 0 169 -98 272
-219 130 -153 148 -214 147 -491 -1 -152 -5 -198 -21 -257 -23 -85 -12 -96 32
-32 42 60 54 134 44 275 -10 140 -22 227 -45 309 -9 33 -20 79 -24 102 -9 54
-60 121 -193 253 -58 57 -103 108 -100 113 8 14 64 -2 138 -40z m-3733 -128
c29 -28 49 -87 37 -106 -9 -15 -35 -21 -91 -20 -43 1 -53 -10 -38 -39 12 -23
3 -88 -10 -73 -27 30 -70 129 -70 161 1 87 112 137 172 77z m319 -6 c39 -42
43 -66 24 -135 -24 -82 -30 -86 -69 -39 -33 39 -35 39 -53 22 -11 -9 -29 -17
-41 -17 -18 0 -22 6 -22 34 0 38 32 121 57 149 26 27 71 22 104 -14z m879 -51
c-25 -74 -39 -48 -24 45 7 37 7 37 22 16 12 -18 13 -27 2 -61z m1660 67 c0 -3
-4 -13 -9 -23 -5 -9 -15 -37 -22 -62 -7 -25 -16 -49 -21 -54 -4 -6 -8 -20 -8
-32 0 -13 -4 -26 -10 -29 -5 -3 -10 -16 -10 -29 0 -12 -4 -26 -8 -31 -21 -24
-72 -203 -72 -252 0 -15 -4 -52 -10 -82 -20 -117 -40 -309 -40 -383 0 -43 -7
-97 -15 -122 -22 -65 -38 -304 -35 -523 2 -189 -1 -212 -29 -180 -6 8 -32 25
-58 38 -39 20 -61 24 -134 24 -79 0 -90 -3 -125 -28 -38 -27 -39 -27 -42 -6
-2 12 0 24 5 28 18 13 34 80 24 99 -14 26 13 65 29 42 5 -8 10 -10 10 -5 0 6
-5 16 -11 22 -5 5 -7 22 -3 37 5 23 8 24 18 11 9 -13 17 -14 44 -4 37 13 46
37 34 94 -10 51 -42 56 -55 10 -5 -16 -14 -41 -20 -55 -10 -23 -12 -21 -20 30
-5 30 -11 124 -13 208 -5 129 -3 152 9 152 15 0 32 -44 23 -59 -9 -14 15 -81
29 -81 13 0 65 55 65 68 0 4 -5 14 -10 22 -6 10 -4 21 9 35 10 11 22 38 26 60
4 21 13 52 21 67 8 15 14 39 14 53 0 14 4 33 10 43 23 43 41 92 36 100 -3 5 2
21 10 37 8 16 24 63 35 105 11 41 34 113 50 160 17 47 35 101 41 120 5 19 21
60 35 90 75 162 97 205 104 208 5 2 9 11 9 20 0 12 3 13 11 5 9 -9 16 -8 27 4
12 12 13 16 2 23 -9 6 -8 10 6 19 20 11 44 14 44 6z m-2340 -99 c17 -44 30
-46 30 -5 0 19 4 28 11 23 6 -3 9 -19 7 -35 -2 -15 0 -27 4 -26 5 1 15 -14 23
-33 54 -141 57 -158 31 -210 -31 -64 -43 -74 -86 -73 -48 2 -114 44 -135 85
-9 19 -15 63 -16 116 -1 97 14 147 58 188 31 29 53 20 73 -30z m25 44 c3 -5 1
-10 -4 -10 -6 0 -11 5 -11 10 0 6 2 10 4 10 3 0 8 -4 11 -10z m-865 -147 c93
-47 122 -117 78 -183 -31 -45 -56 -52 -107 -30 -42 20 -74 61 -98 130 -17 48
-16 60 9 87 28 30 52 29 118 -4z m2577 -105 c-3 -8 -6 -5 -6 6 -1 11 2 17 5
13 3 -3 4 -12 1 -19z m-20 -40 c-3 -8 -6 -5 -6 6 -1 11 2 17 5 13 3 -3 4 -12
1 -19z m1373 -89 c0 -32 -24 -21 -36 15 l-10 34 23 -15 c13 -8 23 -24 23 -34z
m-4130 -94 c51 -54 28 -188 -39 -228 -36 -21 -60 -22 -89 -1 -23 16 -32 77
-12 89 13 8 13 52 -1 60 -5 4 -18 0 -28 -9 -17 -16 -19 -15 -35 18 -31 67 0
95 105 96 68 0 78 -3 99 -25z m2824 -338 c8 -13 7 -24 -6 -47 -9 -16 -14 -38
-11 -49 8 -31 -4 -58 -20 -42 -7 7 -12 41 -12 87 0 68 2 74 19 72 10 -2 24
-11 30 -21z m-2974 -108 c36 -28 68 -56 72 -62 13 -24 -20 -77 -58 -93 -45
-19 -74 -7 -104 41 -32 51 -36 105 -10 138 12 15 24 27 28 27 4 0 36 -23 72
-51z m216 -413 c6 -37 6 -38 -15 -27 -14 8 -21 21 -21 40 0 57 24 49 36 -13z
m1181 -68 c-3 -8 -6 -5 -6 6 -1 11 2 17 5 13 3 -3 4 -12 1 -19z m6957 13 c7
-12 -14 -102 -47 -201 -23 -69 -25 -72 -26 -37 -1 20 3 37 8 37 4 0 11 37 15
83 4 45 9 92 13 105 5 22 27 30 37 13z m-8505 -103 c-2 -13 2 -33 9 -45 20
-37 13 -45 -14 -18 -24 24 -25 29 -14 56 15 35 22 38 19 7z m100 -82 c8 -9 19
-16 26 -16 16 0 37 -48 30 -71 -4 -12 1 -21 15 -29 11 -6 20 -16 20 -22 0 -6
16 -26 35 -44 42 -38 44 -54 8 -54 -21 1 -36 12 -63 48 -19 25 -42 60 -51 77
-8 16 -22 41 -29 55 -21 37 -40 114 -29 118 5 2 10 11 10 20 1 10 5 -2 8 -25
4 -23 13 -48 20 -57z m2750 -8 c-1 -57 -3 -95 -6 -85 -4 14 -11 17 -32 12 -22
-5 -29 -1 -39 19 -8 19 -8 27 3 36 9 8 15 8 20 0 3 -6 11 -8 16 -4 5 3 7 9 4
14 -3 5 1 25 9 44 8 19 12 37 9 40 -5 5 5 26 13 26 2 0 3 -46 3 -102z m-2309
62 c0 -5 8 -10 19 -10 28 0 68 -24 63 -38 -5 -17 -42 -15 -42 2 0 20 -30 29
-36 11 -4 -8 -17 -15 -30 -15 -28 0 -49 31 -32 48 15 15 58 16 58 2z m5620
-85 c0 -6 -8 -15 -19 -22 -16 -10 -22 -8 -40 11 l-22 23 40 -1 c23 0 41 -5 41
-11z m-5873 -77 c-3 -8 -6 -5 -6 6 -1 11 2 17 5 13 3 -3 4 -12 1 -19z m-221
-32 c13 -12 26 -34 30 -51 7 -27 6 -29 -9 -14 -21 22 -57 86 -56 102 0 8 3 7
6 -2 3 -8 16 -24 29 -35z m8351 7 c-3 -10 -5 -4 -5 12 0 17 2 24 5 18 2 -7 2
-21 0 -30z m-40 -105 c-3 -8 -6 -5 -6 6 -1 11 2 17 5 13 3 -3 4 -12 1 -19z
m-176 -76 c-6 -2 -11 -10 -11 -18 0 -8 -4 -14 -10 -14 -13 0 -13 1 7 41 14 28
18 31 21 14 3 -10 -1 -21 -7 -23z m149 13 c0 -3 -21 -47 -47 -98 -37 -71 -65
-109 -125 -168 -90 -90 -146 -135 -156 -125 -3 4 10 22 30 39 20 18 69 70 108
117 39 47 85 101 102 120 17 19 40 54 51 78 18 36 37 55 37 37z m-223 -157
c-3 -7 -5 -2 -5 12 0 14 2 19 5 13 2 -7 2 -19 0 -25z m-777 -42 c0 -9 -68 -46
-84 -46 -15 0 -15 2 -4 13 31 28 88 49 88 33z m-6806 -72 c42 -42 45 -54 11
-54 -17 0 -23 4 -19 14 3 8 -10 30 -30 51 -20 20 -36 39 -36 41 0 10 39 -17
74 -52z m201 36 c3 -5 -3 -10 -14 -10 -12 0 -21 5 -21 10 0 6 6 10 14 10 8 0
18 -4 21 -10z m6925 -25 c-33 -17 -48 -20 -58 -12 -10 8 -7 13 15 23 15 7 42
13 58 13 29 0 28 -1 -15 -24z m-6785 -10 l40 -13 -42 -1 c-24 -1 -43 3 -43 8
0 6 -15 12 -32 14 l-33 4 35 1 c19 0 53 -5 75 -13z m6352 9 c-3 -3 -12 -4 -19
-1 -8 3 -5 6 6 6 11 1 17 -2 13 -5z m-5989 -16 c-5 -15 -33 -22 -54 -14 -24 9
-6 26 27 26 20 0 29 -4 27 -12z m-768 -8 c0 -5 -4 -10 -9 -10 -6 0 -13 5 -16
10 -3 6 1 10 9 10 9 0 16 -4 16 -10z m6703 3 c-7 -2 -21 -2 -30 0 -10 3 -4 5
12 5 17 0 24 -2 18 -5z m-6038 -13 c8 -13 -39 -24 -72 -15 -21 5 -24 8 -12 16
19 12 76 12 84 -1z m-138 -6 c-3 -3 -12 -4 -19 -1 -8 3 -5 6 6 6 11 1 17 -2
13 -5z m6739 -29 c-8 -8 -18 -15 -22 -15 -3 0 -1 7 6 15 7 8 17 15 22 15 5 0
3 -7 -6 -15z m268 3 c-4 -7 -17 -26 -29 -43 -12 -16 -25 -42 -28 -57 -6 -22
-15 -29 -45 -34 -20 -4 -68 -20 -107 -35 -75 -31 -85 -33 -85 -21 0 4 17 15
38 24 20 9 84 53 142 97 103 78 128 94 114 69z m-6447 -50 c-3 -8 -6 -5 -6 6
-1 11 2 17 5 13 3 -3 4 -12 1 -19z m-658 -7 c9 -6 10 -11 2 -15 -14 -9 -51 2
-51 15 0 11 30 12 49 0z m6705 -6 c-4 -8 -14 -15 -23 -16 -9 0 -33 -1 -53 -2
-45 -2 -40 4 15 19 60 16 67 16 61 -1z m-249 -11 c105 -8 153 -21 90 -25 -61
-4 -119 2 -129 12 -6 5 -30 9 -54 9 -27 0 -41 4 -37 10 4 6 14 9 23 6 10 -3
58 -8 107 -12z m-6358 -10 c-3 -3 -12 -4 -19 -1 -8 3 -5 6 6 6 11 1 17 -2 13
-5z m4760 -68 c-4 -9 -11 -16 -17 -16 -15 0 -24 26 -16 47 6 15 8 15 23 1 9
-9 13 -24 10 -32z m1940 -52 c-3 -3 -12 -4 -19 -1 -8 3 -5 6 6 6 11 1 17 -2
13 -5z m-54 -21 c-13 -2 -35 -2 -50 0 -16 2 -5 4 22 4 28 0 40 -2 28 -4z m-88
-23 c-28 -12 -65 -12 -65 0 0 6 19 10 43 9 32 0 37 -2 22 -9z m-85 -14 c0 -3
-4 -8 -10 -11 -5 -3 -10 -1 -10 4 0 6 5 11 10 11 6 0 10 -2 10 -4z m-1393
-167 c10 -10 9 -61 -3 -98 -8 -26 -18 -1 -21 54 -3 55 3 65 24 44z m1505 -749
c17 -16 36 -30 41 -30 8 0 8 -3 0 -11 -14 -14 -45 5 -67 43 -22 36 -14 36 26
-2z m-6122 -551 c0 -6 -8 -6 -20 1 -11 6 -20 15 -20 20 0 4 -3 17 -6 27 -4 12
2 9 20 -10 14 -15 26 -33 26 -38z m20 -34 c0 -8 -2 -15 -4 -15 -2 0 -6 7 -10
15 -3 8 -1 15 4 15 6 0 10 -7 10 -15z m5842 -287 c4 -32 0 -72 -9 -102 -10
-35 -11 -52 -4 -59 18 -18 43 16 48 67 7 56 19 58 39 9 9 -21 22 -51 29 -68 7
-16 19 -48 26 -70 15 -48 25 -74 77 -185 42 -91 138 -378 129 -386 -3 -3 -25
21 -50 53 -113 146 -135 128 -49 -40 59 -114 76 -170 102 -328 15 -96 12 -331
-5 -419 -21 -111 -57 -254 -65 -260 -4 -3 -10 -12 -13 -20 -3 -8 -4 3 -2 25
12 118 15 463 4 495 -17 50 -33 63 -24 20 4 -19 9 -93 12 -165 4 -100 1 -141
-11 -180 -57 -185 -71 -226 -92 -273 -13 -29 -24 -56 -24 -61 0 -7 -23 -70
-52 -141 -6 -14 -14 -34 -19 -45 -22 -53 -69 -232 -69 -261 0 -23 7 -38 25
-52 26 -21 32 -37 15 -47 -15 -9 -85 31 -99 59 -13 24 -13 39 5 141 l7 40 -23
-28 c-12 -16 -31 -51 -42 -79 -18 -48 -18 -51 -1 -86 14 -29 34 -44 98 -77 44
-22 94 -50 112 -62 17 -13 34 -23 37 -23 15 0 164 -107 210 -149 56 -53 92
-103 134 -187 59 -116 64 -146 57 -288 -5 -79 -11 -123 -16 -115 -5 8 -9 30
-9 49 -1 19 -7 49 -14 65 -13 27 -14 19 -15 -92 0 -92 -5 -130 -18 -157 -26
-54 -39 -45 -35 25 5 79 -11 171 -50 289 -37 113 -120 230 -163 230 -13 0 -26
-3 -28 -8 -3 -4 18 -45 46 -92 65 -106 91 -200 90 -325 0 -79 -4 -98 -31 -159
-40 -86 -69 -112 -136 -120 -28 -4 -66 -9 -83 -12 -20 -4 -33 -2 -33 4 0 18
46 62 64 62 21 0 66 29 66 42 0 6 -19 7 -49 3 l-48 -6 -6 123 c-5 108 -9 133
-38 203 -38 94 -84 164 -118 177 -40 15 -44 -5 -13 -70 30 -64 35 -112 35
-374 0 -99 -31 -146 -118 -184 -101 -42 -251 -38 -286 9 -3 4 -2 29 2 55 7 51
-5 225 -19 257 -68 156 -121 235 -156 235 -9 0 -18 11 -22 25 -8 30 -24 23
-24 -11 0 -14 6 -24 14 -24 47 0 112 -221 102 -345 -8 -110 -17 -165 -27 -165
-5 0 -9 -7 -9 -15 0 -57 -193 -69 -360 -21 -102 30 -157 52 -179 74 -19 18 -6
28 22 15 38 -19 143 -53 161 -53 9 0 16 8 16 19 0 11 5 21 11 23 19 6 1 44
-28 59 -35 18 -73 53 -73 68 0 14 13 14 28 -1 9 -9 13 -7 18 7 10 24 -20 69
-48 73 -13 2 -30 6 -38 9 -8 4 -17 7 -20 7 -3 1 -15 11 -27 24 -13 12 -29 22
-37 22 -8 0 -17 15 -20 36 -8 41 -22 49 -67 36 -26 -8 -28 -10 -11 -11 34 -1
62 -55 62 -119 0 -29 5 -61 11 -71 7 -11 9 -29 4 -47 -4 -16 -10 -23 -12 -16
-3 7 -23 12 -49 12 -66 0 -174 65 -174 105 0 9 -16 37 -35 62 -19 25 -35 50
-35 54 0 4 -12 25 -26 46 -24 36 -25 42 -18 128 3 49 10 94 15 99 5 6 9 32 9
60 0 65 29 101 67 83 19 -8 26 -8 33 3 12 19 2 111 -14 130 -23 26 -28 56 -11
70 8 7 15 23 15 35 0 12 7 40 16 60 16 39 9 54 -23 55 -7 0 -20 12 -30 26 -13
21 -14 30 -4 45 6 11 9 24 6 29 -13 22 18 8 37 -15 23 -29 55 -35 42 -7 -4 9
-10 41 -13 70 -5 43 -11 55 -31 65 -15 8 -27 25 -33 47 -5 24 -20 43 -45 61
-56 39 -69 42 -76 13 -8 -31 -30 -31 -44 1 -23 50 -5 308 28 406 11 32 20 68
20 79 0 21 91 202 115 230 8 8 19 26 25 40 27 61 143 219 265 360 35 41 75 92
87 114 15 24 40 47 70 62 26 13 55 36 65 52 29 46 115 131 171 169 29 19 59
48 67 63 8 16 58 57 116 96 63 42 114 85 135 113 18 25 48 65 65 89 17 23 39
42 49 42 10 0 23 7 30 15 7 9 28 23 48 32 27 13 38 14 53 5 38 -24 67 -15 89
28 24 47 24 50 5 50 -8 0 -15 7 -15 15 0 14 35 72 51 85 4 3 9 15 13 28 4 12
11 22 16 22 4 0 18 11 31 24 13 14 26 23 30 20 4 -2 9 -27 11 -56z m-5862 21
c-11 -37 -15 -42 -29 -38 -11 4 16 69 30 69 4 0 4 -14 -1 -31z m-59 -120 c-24
-32 -28 -84 -7 -92 17 -7 11 -36 -15 -84 -18 -32 -18 -33 4 -48 12 -8 34 -36
48 -62 14 -27 35 -52 46 -57 11 -5 29 -26 39 -45 10 -20 26 -48 36 -62 11 -16
20 -56 24 -100 9 -94 17 -117 46 -121 33 -4 49 -55 24 -74 -10 -7 -23 -15 -29
-17 -6 -2 -4 -12 4 -25 9 -14 20 -20 31 -17 10 4 22 -3 32 -17 15 -20 15 -23
1 -26 -8 -2 -15 -10 -15 -18 0 -18 77 -122 100 -134 14 -7 16 -4 12 21 -3 23
-9 29 -28 29 -15 0 -24 6 -24 15 0 8 -4 15 -9 15 -18 0 -21 33 -4 46 25 19 26
18 47 -21 15 -27 22 -32 32 -24 11 9 16 6 23 -12 5 -13 10 -18 10 -11 1 18 26
9 27 -9 0 -8 3 -21 7 -29 12 -32 15 -60 7 -65 -5 -3 -11 -1 -15 5 -8 13 -35
13 -35 0 0 -12 81 -100 92 -100 4 0 8 16 8 35 0 30 3 35 23 35 22 0 67 -46 67
-69 0 -6 10 -16 22 -22 13 -7 31 -22 40 -35 12 -14 25 -20 37 -17 15 4 20 -1
23 -18 2 -15 15 -30 33 -39 54 -27 115 -93 115 -124 0 -16 12 -55 26 -87 32
-72 60 -80 69 -21 10 62 13 68 14 39 0 -15 19 -62 42 -105 38 -72 40 -80 36
-142 -4 -48 0 -81 14 -123 15 -45 17 -62 8 -73 -6 -8 -9 -25 -6 -40 3 -20 -1
-27 -19 -34 -30 -12 -31 -30 -3 -37 16 -5 20 -12 16 -31 -5 -29 27 -67 49 -58
8 3 22 19 32 36 19 33 50 40 58 13 3 -10 12 -31 20 -46 7 -16 14 -35 14 -43 0
-21 18 -17 30 6 12 23 45 27 53 7 3 -8 1 -20 -4 -28 -5 -8 -9 -22 -9 -32 0
-11 -8 -31 -18 -45 -10 -15 -24 -52 -31 -83 -15 -71 1 -131 42 -161 26 -19 29
-26 26 -72 -4 -83 -1 -96 24 -105 28 -11 42 -28 50 -61 6 -25 66 -110 78 -110
3 0 11 11 17 25 15 34 37 32 52 -5 15 -37 6 -76 -20 -83 -17 -4 -20 -13 -20
-65 0 -87 -9 -122 -31 -122 -14 0 -19 -7 -19 -27 0 -34 -8 -46 -37 -62 -17 -9
-23 -21 -23 -46 0 -32 2 -34 20 -25 11 5 29 14 40 20 11 5 28 10 38 10 10 0
35 9 57 20 22 11 45 20 51 20 7 0 26 16 44 36 21 24 37 34 50 31 12 -3 27 7
46 34 24 32 34 38 53 34 14 -4 27 -1 31 5 16 25 17 -7 3 -52 -17 -52 -70 -114
-124 -145 -49 -28 -146 -58 -304 -93 -206 -46 -273 -63 -338 -85 -37 -12 -71
-25 -74 -29 -4 -3 -17 -6 -29 -6 -13 0 -25 -4 -28 -9 -3 -5 -23 -11 -43 -14
-68 -10 -159 -31 -198 -48 -57 -23 -245 -30 -325 -12 -195 45 -230 85 -230
258 0 88 4 113 23 157 19 43 30 55 60 66 40 14 49 32 17 32 -31 0 -24 22 21
74 35 39 38 47 24 53 -21 7 -96 -31 -129 -67 -13 -14 -41 -54 -63 -90 -22 -36
-55 -89 -73 -118 l-33 -52 12 -88 c7 -48 14 -105 17 -127 l6 -40 -27 33 c-14
17 -31 32 -36 32 -5 0 -25 15 -43 32 -19 18 -43 33 -53 34 -10 0 -30 1 -44 2
-34 3 -112 55 -129 87 -15 28 -47 42 -63 26 -7 -7 -5 -27 8 -66 14 -47 26 -63
78 -105 41 -33 73 -51 101 -56 23 -3 47 -11 54 -16 9 -8 12 -5 12 11 0 38 31
38 62 1 15 -19 28 -38 28 -42 0 -12 -118 -10 -125 2 -3 6 -21 10 -39 10 -79 0
-172 83 -205 183 -42 130 -17 262 75 397 17 25 35 57 39 70 11 35 24 50 46 50
12 0 19 -7 19 -20 0 -24 32 -27 50 -5 11 13 11 20 0 40 -19 36 -33 37 -112 4
-81 -35 -110 -57 -132 -103 -8 -17 -27 -49 -40 -71 -21 -33 -25 -36 -26 -17 0
12 -4 22 -9 22 -13 0 -34 -68 -27 -86 3 -8 -1 -60 -9 -115 -8 -54 -15 -101
-15 -104 0 -3 -6 -5 -14 -5 -8 0 -18 -5 -22 -12 -5 -8 0 -9 14 -6 19 5 22 2
22 -29 0 -21 9 -47 25 -67 14 -18 25 -37 25 -42 0 -5 -4 -4 -8 1 -4 6 -34 33
-67 60 -71 59 -79 68 -106 120 -19 34 -21 50 -16 135 13 229 105 393 286 512
40 26 79 48 85 48 6 0 24 11 40 25 16 14 33 25 37 25 4 0 15 3 23 6 14 5 15 2
7 -20 -12 -29 -7 -34 33 -32 35 1 59 31 36 47 -11 8 -9 9 9 4 19 -6 23 -4 18
8 -5 13 2 16 39 15 24 0 47 -4 50 -9 2 -4 15 -4 27 0 13 5 36 4 57 -4 84 -30
113 -33 245 -34 77 0 153 -4 168 -10 16 -6 38 -11 49 -11 12 0 29 -7 39 -15
14 -14 26 -14 85 -4 38 6 73 15 78 19 12 12 -29 31 -98 45 -34 7 -77 20 -96
29 l-35 16 45 -4 c90 -8 206 -28 245 -42 48 -17 81 -18 91 -3 8 14 -13 33 -51
47 -16 6 -75 26 -130 46 -55 20 -112 36 -127 36 -15 0 -30 5 -33 10 -3 6 -17
10 -31 10 -13 0 -32 4 -42 9 -9 5 -28 13 -42 19 -14 5 -42 17 -62 26 -31 14
-48 15 -103 6 -83 -13 -141 -36 -160 -63 l-15 -21 0 21 c0 12 -4 25 -10 28 -5
3 -10 16 -10 28 0 48 -68 200 -93 210 -16 6 -45 76 -78 187 -12 41 -26 79 -31
84 -4 6 -8 20 -8 31 0 12 -8 37 -17 56 -25 51 -33 107 -41 294 -4 102 -11 170
-17 170 -6 0 -14 -49 -18 -110 -11 -137 -16 -153 -32 -90 -41 168 -49 446 -16
600 46 216 51 244 50 252 -3 17 14 73 22 73 5 0 9 7 9 15 0 8 4 15 8 15 4 0
14 17 21 38 14 41 28 77 42 104 11 21 12 52 2 61 -3 4 -21 -5 -40 -19 -35 -26
-46 -23 -15 5 16 15 33 47 52 96 20 52 78 165 110 215 31 48 35 52 38 31 2
-13 -6 -36 -17 -52z m499 -46 c34 -54 41 -93 10 -53 -35 44 -39 49 -56 58 -18
10 -13 42 6 42 6 0 24 -21 40 -47z m47 -115 c-3 -8 -6 -5 -6 6 -1 11 2 17 5
13 3 -3 4 -12 1 -19z m-487 -39 c0 -5 -4 -9 -10 -9 -5 0 -10 7 -10 16 0 8 5
12 10 9 6 -3 10 -10 10 -16z m5250 -28 c0 -13 -26 -32 -33 -24 -8 7 11 33 24
33 5 0 9 -4 9 -9z m-5090 -204 c0 -20 -1 -20 -16 -5 -9 9 -13 21 -9 27 10 16
25 3 25 -22z m4940 -4 c0 -33 -36 -97 -50 -88 -15 9 -12 32 10 75 24 47 40 52
40 13z m-4920 -63 c0 -5 -4 -10 -9 -10 -6 0 -13 5 -16 10 -3 6 1 10 9 10 9 0
16 -4 16 -10z m140 -310 c9 -16 8 -20 -5 -20 -8 0 -15 9 -15 20 0 11 2 20 5
20 2 0 9 -9 15 -20z m5964 -26 c4 -9 4 -19 2 -22 -10 -9 -36 8 -36 23 0 20 26
19 34 -1z m-5937 -16 c-3 -8 -6 -5 -6 6 -1 11 2 17 5 13 3 -3 4 -12 1 -19z
m4260 -90 c-3 -8 -6 -5 -6 6 -1 11 2 17 5 13 3 -3 4 -12 1 -19z m-20 -30 c-3
-8 -6 -5 -6 6 -1 11 2 17 5 13 3 -3 4 -12 1 -19z m-4007 -93 c0 -8 -4 -15 -10
-15 -5 0 -7 7 -4 15 4 8 8 15 10 15 2 0 4 -7 4 -15z m5707 -447 c-2 -13 -4 -5
-4 17 -1 22 1 32 4 23 2 -10 2 -28 0 -40z m-17 -75 c0 -3 -11 -21 -25 -39 -14
-18 -30 -43 -35 -56 -7 -18 -9 -13 -7 27 2 42 6 52 27 62 28 14 40 16 40 6z
m-3560 -103 c21 -7 18 -8 -18 -9 -26 -1 -41 3 -37 9 7 11 19 11 55 0z m3471
-93 c-8 -8 -11 -5 -11 9 0 27 14 41 18 19 2 -9 -1 -22 -7 -28z m-3631 3 c0 -5
-18 -10 -41 -10 -24 0 -38 4 -34 10 3 6 22 10 41 10 19 0 34 -4 34 -10z m795
0 c4 -6 -13 -10 -45 -10 -32 0 -49 4 -45 10 3 6 24 10 45 10 21 0 42 -4 45
-10z m2809 -52 c-4 -7 -17 -27 -30 -44 -13 -17 -39 -64 -59 -105 -38 -79 -63
-113 -51 -69 4 14 10 35 13 48 3 12 9 22 14 22 5 0 9 7 9 15 0 8 5 15 10 15 6
0 10 9 10 19 0 11 5 23 10 26 6 3 10 15 10 26 0 24 19 45 46 52 10 2 20 5 22
6 2 0 0 -5 -4 -11z m-3844 -113 c-24 -25 -46 -45 -48 -45 -13 0 68 88 83 89 5
1 -11 -19 -35 -44z m-1115 -51 c-7 -8 -15 -19 -18 -26 -3 -9 -9 -7 -20 7 -24
33 -23 40 8 45 34 7 49 -7 30 -26z m-115 -12 c0 -25 -7 -31 -31 -25 -29 8 -25
43 6 43 18 0 25 -5 25 -18z m173 -24 c-6 -7 -12 -18 -14 -25 -2 -7 -9 -1 -16
12 -10 23 -9 25 14 25 19 0 23 -3 16 -12z m967 -12 c0 -8 -4 -18 -10 -21 -5
-3 -10 3 -10 14 0 12 5 21 10 21 6 0 10 -6 10 -14z m-90 -110 c0 -2 -7 -7 -16
-10 -8 -3 -12 -2 -9 4 6 10 25 14 25 6z m2130 -36 c0 -21 -21 -32 -41 -20 -11
7 -10 12 5 29 21 23 36 19 36 -9z m-2236 -267 c-41 -140 -63 -127 -44 25 7 53
14 101 17 105 3 5 14 -10 24 -33 18 -40 18 -45 3 -97z m-167 45 c-3 -7 -5 -2
-5 12 0 14 2 19 5 13 2 -7 2 -19 0 -25z m-206 -659 c-9 -23 -10 -22 -10 11 -1
23 2 31 9 24 7 -7 7 -19 1 -35z m2376 -136 c26 -15 69 -42 94 -59 26 -17 98
-53 160 -79 63 -26 141 -60 174 -75 33 -15 68 -30 78 -33 19 -7 23 -27 5 -27
-6 0 -25 4 -42 9 -17 5 -49 15 -71 21 -79 24 -229 82 -301 117 -74 36 -164
117 -164 147 0 8 -4 18 -10 21 -5 3 -10 16 -10 28 0 19 2 18 19 -10 11 -17 41
-44 68 -60z m1800 30 c-3 -10 -5 -2 -5 17 0 19 2 27 5 18 2 -10 2 -26 0 -35z
m520 -125 c-3 -8 -6 -5 -6 6 -1 11 2 17 5 13 3 -3 4 -12 1 -19z m33 -158 c0
-5 -4 -10 -10 -10 -5 0 -10 5 -10 10 0 6 5 10 10 10 6 0 10 -4 10 -10z m-6930
-114 c0 -11 -19 -15 -25 -6 -3 5 1 10 9 10 9 0 16 -2 16 -4z"/>
<path d="M12530 11640 c-11 -7 -7 -13 18 -27 18 -10 32 -24 32 -30 0 -7 5 -13
10 -13 12 0 -12 51 -32 68 -8 6 -19 7 -28 2z"/>
<path d="M11400 11386 c0 -9 7 -12 20 -9 11 3 20 9 20 14 0 5 -9 9 -20 9 -11
0 -20 -6 -20 -14z"/>
<path d="M11335 11350 c-3 -5 1 -10 10 -10 9 0 13 5 10 10 -3 6 -8 10 -10 10
-2 0 -7 -4 -10 -10z"/>
<path d="M8031 9644 c0 -11 3 -14 6 -6 3 7 2 16 -1 19 -3 4 -6 -2 -5 -13z"/>
<path d="M7765 9229 c-11 -16 -1 -19 13 -3 7 8 8 14 3 14 -5 0 -13 -5 -16 -11z"/>
<path d="M6148 10082 c-16 -9 -28 -23 -28 -30 0 -18 47 -8 72 15 35 32 1 43
-44 15z"/>
<path d="M5931 9726 c-13 -54 -15 -164 -2 -150 5 5 12 32 15 59 3 28 8 69 12
93 8 56 -10 55 -25 -2z"/>
<path d="M6006 9551 c-6 -9 44 -35 52 -27 7 8 -19 36 -34 36 -7 0 -15 -4 -18
-9z"/>
<path d="M5975 9310 c-9 -15 14 -50 34 -50 29 0 32 12 9 37 -23 25 -34 28 -43
13z"/>
<path d="M13262 5158 c2 -6 10 -14 16 -16 7 -2 10 2 6 12 -7 18 -28 22 -22 4z"/>
<path d="M12693 4833 c-18 -7 -16 -27 5 -46 27 -24 34 -21 30 15 -3 32 -13 40
-35 31z"/>
<path d="M13350 4656 c0 -4 7 -14 15 -22 8 -9 15 -11 15 -6 0 5 -7 15 -15 22
-8 7 -15 9 -15 6z"/>
<path d="M13390 4513 c0 -123 -27 -216 -91 -313 -20 -30 -62 -104 -93 -165
-33 -63 -70 -120 -87 -133 -41 -33 -26 -47 22 -20 54 30 74 55 94 113 9 28 29
73 45 100 16 28 36 70 46 95 10 25 27 52 38 61 31 26 59 140 60 249 1 83 -1
95 -16 98 -16 3 -18 -6 -18 -85z"/>
<path d="M12307 4273 c-7 -12 -77 -261 -77 -273 0 -5 6 -10 14 -10 14 0 46 82
46 119 0 11 4 22 9 25 5 3 12 22 15 41 3 19 9 51 12 70 4 22 2 35 -4 35 -6 0
-13 -3 -15 -7z"/>
<path d="M13411 3924 c0 -11 3 -14 6 -6 3 7 2 16 -1 19 -3 4 -6 -2 -5 -13z"/>
<path d="M12335 3870 c-9 -14 18 -50 37 -50 22 0 23 23 2 44 -18 18 -30 20
-39 6z"/>
<path d="M13085 3746 c-36 -8 -141 -14 -260 -15 l-200 -1 -65 -33 c-52 -26
-69 -40 -83 -71 -31 -66 -5 -105 51 -77 24 12 108 40 167 57 34 9 106 14 222
14 104 0 174 4 178 10 4 6 -8 10 -27 11 -18 0 -42 4 -53 9 -14 7 -5 9 36 8 53
-1 58 0 92 39 60 65 52 72 -58 49z m-360 -96 c-11 -5 -29 -9 -41 -9 -11 -1
-39 -10 -62 -21 -55 -27 -70 -25 -43 4 26 28 44 33 116 34 36 0 45 -2 30 -8z
m-175 -56 c0 -13 -35 -33 -57 -34 -31 0 -29 14 5 27 32 13 52 15 52 7z"/>
<path d="M11957 3086 c-7 -18 22 -116 34 -116 4 0 16 11 24 24 15 23 15 27 -7
65 -24 42 -42 52 -51 27z"/>
<path d="M12850 3064 c0 -5 7 -18 15 -28 12 -16 15 -17 15 -4 0 8 -7 21 -15
28 -8 7 -15 9 -15 4z"/>
<path d="M12190 3010 c0 -24 21 -49 36 -43 23 9 13 47 -13 51 -13 2 -23 -2
-23 -8z"/>
<path d="M12065 2930 c3 -5 8 -10 11 -10 2 0 4 5 4 10 0 6 -5 10 -11 10 -5 0
-7 -4 -4 -10z"/>
<path d="M12063 2884 c-4 -11 6 -28 30 -50 20 -19 39 -43 42 -54 8 -24 28 -26
45 -5 9 10 9 15 1 15 -6 0 -11 11 -11 23 0 24 -27 57 -47 57 -6 0 -16 7 -23
15 -16 19 -29 19 -37 -1z"/>
<path d="M12809 2838 c-2 -5 -7 -41 -13 -93 -8 -81 -34 -169 -56 -187 -19 -16
-22 -15 -45 8 -31 31 -43 30 -51 -1 -6 -25 -28 -33 -39 -15 -3 6 -20 10 -36
10 -29 0 -30 -1 -13 -17 13 -14 35 -18 90 -19 53 0 76 -5 89 -17 20 -21 41
-22 49 -2 3 8 14 15 25 15 23 0 27 16 40 143 10 105 -2 177 -30 177 -5 0 -10
-1 -10 -2z"/>
<path d="M13002 2740 c0 -14 2 -19 5 -12 2 6 2 18 0 25 -3 6 -5 1 -5 -13z"/>
<path d="M7640 5223 c1 -36 1 -37 16 -18 17 22 15 46 -3 53 -9 2 -13 -8 -13
-35z"/>
<path d="M7621 5034 c-12 -15 -24 -37 -26 -48 -41 -186 -43 -402 -5 -523 12
-40 27 -73 31 -73 5 0 9 -7 9 -15 0 -56 280 -445 321 -445 20 0 27 34 9 45
-19 12 -140 168 -140 182 0 7 -17 32 -38 56 -21 23 -45 58 -52 77 -7 19 -21
46 -30 60 -24 36 -37 74 -59 175 -23 103 -24 324 -2 454 7 40 10 75 8 78 -3 2
-14 -8 -26 -23z"/>
<path d="M8092 4883 c2 -35 7 -48 18 -48 20 0 25 42 9 71 -20 38 -30 28 -27
-23z"/>
<path d="M7460 4875 c0 -15 4 -24 10 -20 6 3 10 12 10 20 0 8 -4 17 -10 20 -6
4 -10 -5 -10 -20z"/>
<path d="M7455 4750 c-3 -5 -1 -10 4 -10 6 0 11 5 11 10 0 6 -2 10 -4 10 -3 0
-8 -4 -11 -10z"/>
<path d="M7470 4648 c0 -29 7 -61 14 -70 12 -17 14 -17 29 0 12 13 14 27 8 58
-9 49 -18 64 -37 64 -10 0 -14 -13 -14 -52z"/>
<path d="M8320 4670 l-23 -23 24 -13 c13 -7 30 -13 37 -14 16 0 15 31 -1 55
-13 17 -15 17 -37 -5z"/>
<path d="M7771 4566 c-13 -31 -9 -56 9 -56 16 0 21 22 11 55 l-8 30 -12 -29z"/>
<path d="M7490 4481 c0 -16 -5 -33 -10 -36 -17 -10 -2 -24 20 -18 16 4 20 12
17 41 -3 45 -27 56 -27 13z"/>
<path d="M8490 4360 c-21 -30 -21 -60 -1 -60 30 0 43 -138 25 -267 -5 -34 -3
-43 9 -43 15 0 31 26 22 39 -2 4 2 29 10 56 8 26 15 63 15 81 0 18 5 34 12 36
8 3 9 12 0 36 -7 21 -8 41 -2 56 7 19 4 28 -16 45 -13 11 -24 28 -24 36 0 25
-27 17 -50 -15z"/>
<path d="M7502 4329 c2 -7 10 -15 17 -17 8 -3 12 1 9 9 -2 7 -10 15 -17 17 -8
3 -12 -1 -9 -9z"/>
<path d="M7666 3985 c4 -8 10 -15 15 -15 5 0 9 7 9 15 0 8 -7 15 -15 15 -9 0
-12 -6 -9 -15z"/>
<path d="M7782 3849 c2 -7 10 -15 17 -17 8 -3 12 1 9 9 -2 7 -10 15 -17 17 -8
3 -12 -1 -9 -9z"/>
<path d="M8085 2670 c4 -6 11 -8 16 -5 14 9 11 15 -7 15 -8 0 -12 -5 -9 -10z"/>
<path d="M8291 2663 c-16 -17 -11 -25 8 -14 7 5 12 13 10 19 -2 6 -10 4 -18
-5z"/>
<path d="M7775 2660 c3 -5 8 -10 11 -10 2 0 4 5 4 10 0 6 -5 10 -11 10 -5 0
-7 -4 -4 -10z"/>
<path d="M9443 17874 c-13 -3 -23 -10 -23 -15 0 -22 80 -42 200 -50 96 -6 147
-15 219 -39 52 -17 103 -37 112 -46 9 -8 34 -20 55 -25 24 -7 51 -25 71 -47
21 -24 32 -31 33 -21 0 8 -9 25 -20 37 -12 12 -29 41 -39 64 -25 57 -64 91
-135 117 -51 19 -85 22 -255 26 -108 2 -206 1 -218 -1z"/>
<path d="M9520 17782 c0 -4 5 -13 11 -19 14 -14 -55 -29 -166 -38 -80 -6 -195
-32 -195 -44 0 -4 33 -15 73 -25 l72 -19 -80 -18 c-44 -10 -98 -26 -120 -35
-22 -9 -87 -34 -145 -54 -185 -66 -333 -132 -404 -182 -38 -26 -75 -48 -81
-48 -8 0 -14 25 -18 67 -5 45 -14 77 -29 99 -43 62 -67 53 -68 -26 -1 -52 3
-55 -78 67 -48 73 -216 263 -233 263 -11 0 -12 -33 0 -46 5 -5 42 -70 83 -144
180 -323 186 -339 168 -404 -6 -23 -10 -57 -8 -75 l3 -33 26 21 c19 14 34 44
50 96 23 72 42 84 33 21 -3 -17 0 -38 5 -46 9 -12 13 -12 33 6 73 65 280 176
465 247 48 19 122 51 164 70 84 40 192 77 221 77 11 0 31 6 46 14 53 27 97 29
155 8 63 -24 169 -32 175 -14 5 17 25 15 61 -5 16 -10 33 -14 37 -10 14 14
-70 118 -114 142 -24 13 -39 26 -33 29 11 7 227 -31 253 -45 29 -15 39 -10 21
11 -21 24 -98 54 -178 69 -33 7 -79 16 -103 21 -52 12 -102 13 -102 2z m73
-49 c-7 -2 -19 -2 -25 0 -7 3 -2 5 12 5 14 0 19 -2 13 -5z m25 -109 c26 -7 30
-34 5 -34 -10 1 -43 7 -73 14 l-55 14 45 4 c25 2 47 5 50 6 3 1 15 -1 28 -4z"/>
<path d="M7720 17744 c0 -3 12 -21 26 -39 24 -32 95 -75 124 -75 16 0 -36 49
-97 91 -42 29 -53 34 -53 23z"/>
<path d="M10705 17710 c-3 -6 1 -7 9 -4 18 7 21 14 7 14 -6 0 -13 -4 -16 -10z"/>
<path d="M9948 17653 c7 -3 16 -2 19 1 4 3 -2 6 -13 5 -11 0 -14 -3 -6 -6z"/>
<path d="M10588 17633 c7 -3 16 -2 19 1 4 3 -2 6 -13 5 -11 0 -14 -3 -6 -6z"/>
<path d="M10167 17493 c-14 -13 -6 -42 13 -48 17 -5 20 -15 20 -66 0 -38 4
-58 10 -54 15 9 12 98 -5 139 -15 35 -25 43 -38 29z"/>
<path d="M10157 17364 c-8 -9 -9 -80 -1 -111 9 -31 44 -31 44 0 0 13 -4 27
-10 33 -5 5 -13 26 -17 47 -5 21 -12 35 -16 31z"/>
<path d="M13221 17334 c-75 -9 -124 -21 -144 -33 -29 -18 -29 -19 -8 -26 12
-3 36 -3 54 1 17 4 70 11 117 16 47 5 108 11 136 14 l51 6 71 -66 c67 -61 114
-87 129 -72 7 7 -9 23 -96 95 -104 86 -114 88 -310 65z"/>
<path d="M7274 17286 c-9 -23 2 -31 66 -45 58 -14 99 -12 103 3 9 37 -155 78
-169 42z"/>
<path d="M7470 17200 c0 -5 5 -10 11 -10 5 0 7 5 4 10 -3 6 -8 10 -11 10 -2 0
-4 -4 -4 -10z"/>
<path d="M7035 17169 c-22 -11 -49 -29 -60 -41 l-20 -21 25 8 c53 15 80 17 80
6 0 -6 -4 -11 -9 -11 -14 0 -80 -44 -81 -52 0 -14 45 -9 102 11 90 31 126 61
73 61 -14 0 -25 5 -25 11 0 6 15 9 34 8 43 -4 57 8 32 27 -28 20 -104 17 -151
-7z"/>
<path d="M8795 17117 c-41 -24 -121 -82 -143 -104 -33 -33 -3 -29 33 5 17 15
50 38 75 51 45 25 70 44 70 55 0 8 -12 6 -35 -7z"/>
<path d="M6489 17086 c-19 -13 -48 -41 -66 -63 -50 -63 -83 -203 -48 -203 20
0 56 60 50 81 -4 10 7 26 29 43 38 29 54 62 37 79 -8 8 -3 20 20 43 38 39 25
51 -22 20z"/>
<path d="M10100 17013 c0 -12 4 -44 9 -70 5 -26 15 -81 22 -121 12 -73 27 -99
52 -89 18 7 37 82 37 146 0 60 -18 151 -30 151 -5 0 -13 -19 -17 -42 -10 -49
-28 -60 -36 -21 -3 15 -13 37 -21 48 -15 20 -15 20 -16 -2z m67 -205 c-2 -18
-4 -4 -4 32 0 36 2 50 4 33 2 -18 2 -48 0 -65z"/>
<path d="M11940 16911 c0 -5 7 -11 14 -14 10 -4 13 -1 9 9 -6 15 -23 19 -23 5z"/>
<path d="M12490 16901 c0 -10 9 -21 20 -24 21 -5 24 1 14 27 -9 22 -34 20 -34
-3z"/>
<path d="M8445 16871 c-59 -37 -173 -180 -221 -277 -44 -89 -73 -264 -44 -264
17 0 30 47 30 104 0 35 5 58 15 66 8 7 17 28 21 47 10 54 54 126 128 208 45
50 78 77 99 83 22 6 32 14 32 27 0 27 -24 29 -60 6z"/>
<path d="M12414 16865 c26 -19 42 -19 26 0 -7 8 -20 15 -29 15 -13 -1 -13 -3
3 -15z"/>
<path d="M6357 16763 c-10 -9 -9 -53 1 -53 4 0 13 9 19 19 10 15 9 22 -1 30
-7 6 -16 8 -19 4z"/>
<path d="M10172 16490 c-15 -47 -34 -292 -26 -335 5 -30 23 -49 25 -27 0 4 4
48 9 97 20 196 22 231 13 265 l-10 35 -11 -35z"/>
<path d="M10084 16497 c-6 -18 12 -57 27 -57 15 0 7 63 -8 68 -7 2 -16 -3 -19
-11z"/>
<path d="M6680 16407 c0 -13 8 -39 17 -58 16 -31 18 -32 21 -11 4 27 -16 92
-29 92 -5 0 -9 -11 -9 -23z"/>
<path d="M14242 16355 c0 -16 2 -22 5 -12 2 9 2 23 0 30 -3 6 -5 -1 -5 -18z"/>
<path d="M12926 16306 c3 -9 11 -16 16 -16 13 0 5 23 -10 28 -7 2 -10 -2 -6
-12z"/>
<path d="M7963 16259 c-7 -13 -26 -46 -43 -74 -17 -27 -33 -57 -36 -65 -11
-26 -36 -84 -60 -134 -13 -28 -24 -54 -24 -58 0 -5 -9 -19 -20 -30 -28 -30
-40 -81 -39 -163 0 -70 0 -70 14 -35 7 19 21 62 30 95 28 103 37 127 64 174
42 73 111 227 111 249 0 11 5 22 11 24 6 2 10 12 8 23 -4 17 -5 16 -16 -6z"/>
<path d="M12645 16114 c22 -20 61 -56 86 -80 25 -24 49 -41 52 -37 10 9 -142
153 -162 153 -11 0 -3 -12 24 -36z"/>
<path d="M6460 16026 c0 -9 5 -16 10 -16 6 0 10 4 10 9 0 6 -4 13 -10 16 -5 3
-10 -1 -10 -9z"/>
<path d="M6800 15981 c0 -12 51 -53 58 -47 7 7 -32 55 -45 56 -7 0 -13 -4 -13
-9z"/>
<path d="M12830 15933 c0 -22 24 -53 40 -53 21 0 17 19 -10 45 -28 27 -30 27
-30 8z"/>
<path d="M7721 15918 c0 -10 -5 -18 -10 -18 -5 0 -15 -15 -22 -32 -23 -60 -49
-143 -49 -156 0 -7 -11 -28 -25 -46 -14 -18 -25 -37 -25 -43 0 -5 -13 -27 -30
-49 -16 -21 -30 -47 -30 -57 0 -10 -11 -53 -25 -95 -13 -42 -33 -117 -44 -167
-32 -143 -55 -555 -31 -555 24 0 34 63 37 240 6 264 36 410 133 645 42 103 55
119 75 91 12 -15 13 -15 19 0 3 8 6 40 6 70 0 31 7 77 16 104 9 27 14 57 11
67 -4 16 -5 16 -6 1z"/>
<path d="M6790 15840 c0 -5 5 -10 11 -10 5 0 7 5 4 10 -3 6 -8 10 -11 10 -2 0
-4 -4 -4 -10z"/>
<path d="M11529 15695 c-54 -17 -96 -53 -105 -91 -11 -44 6 -59 62 -57 219 11
223 10 318 -31 88 -39 143 -78 246 -175 30 -28 63 -51 73 -51 22 0 20 4 -48
79 -68 76 -84 91 -96 91 -7 0 -9 10 -6 26 4 24 -1 28 -74 61 -81 37 -98 53
-54 53 96 0 -92 93 -211 104 -38 4 -75 1 -105 -9z m31 -65 c0 -5 -13 -10 -28
-10 -15 0 -33 -5 -40 -12 -6 -6 -15 -8 -19 -4 -5 4 1 14 11 22 23 16 76 19 76
4z"/>
<path d="M8640 15661 c-14 -4 -40 -11 -57 -15 -58 -15 -41 -36 28 -36 80 0 68
-17 -19 -25 -73 -7 -132 -22 -132 -34 0 -4 -10 -18 -22 -31 l-22 -23 33 6 c39
8 31 -2 -42 -52 -58 -40 -80 -62 -123 -126 -19 -27 -41 -60 -50 -72 -10 -14
-12 -23 -5 -28 6 -3 55 36 109 87 143 138 181 161 313 192 61 15 76 15 174 0
108 -16 148 -13 127 8 -8 8 -7 16 1 29 10 16 8 23 -13 44 -50 49 -233 96 -300
76z m197 -77 c-3 -3 -12 -4 -19 -1 -8 3 -5 6 6 6 11 1 17 -2 13 -5z"/>
<path d="M12966 15575 c4 -8 15 -15 26 -15 17 0 18 3 8 15 -7 8 -19 15 -26 15
-8 0 -11 -6 -8 -15z"/>
<path d="M13030 15468 c0 -13 11 -59 24 -103 35 -117 54 -185 61 -227 4 -21
14 -43 23 -50 13 -12 14 -7 9 37 -3 28 -10 68 -16 90 -5 22 -14 67 -21 100
-12 61 -59 174 -72 175 -5 0 -8 -10 -8 -22z"/>
<path d="M13140 14857 c0 -50 4 -76 10 -72 13 8 13 115 0 135 -7 10 -10 -9
-10 -63z"/>
<path d="M11560 14790 c-30 -3 -72 -14 -92 -24 -51 -25 -122 -89 -142 -128 -9
-18 -26 -48 -36 -66 -40 -66 -80 -204 -80 -272 0 -67 17 -110 45 -110 7 0 17
-9 20 -20 3 -11 12 -20 19 -20 7 0 21 -9 32 -21 16 -17 16 -22 4 -29 -10 -7
-11 -10 -2 -10 6 0 12 -6 12 -13 0 -24 85 -106 135 -131 81 -40 101 -46 114
-33 19 19 13 24 -45 42 -63 20 -168 87 -192 123 -15 23 -15 23 14 16 16 -4 45
-16 64 -27 72 -41 91 -49 157 -59 123 -19 218 7 289 79 58 58 84 114 91 200 7
83 21 91 40 24 9 -30 9 -57 3 -93 -13 -65 -13 -64 9 -44 10 9 21 30 25 47 5
28 7 29 45 23 30 -5 48 -1 80 16 22 13 38 27 36 31 -3 4 -23 10 -45 14 -46 8
-85 47 -124 125 -32 64 -32 66 -1 74 31 8 33 32 3 40 -13 3 -45 19 -71 36 -40
25 -47 33 -37 45 17 20 4 35 -31 35 -19 0 -40 11 -61 31 -23 21 -40 29 -55 26
-13 -2 -26 0 -29 4 -3 5 2 9 11 9 46 0 -47 50 -110 59 -22 4 -65 4 -95 1z
m165 -50 c8 -13 -15 -13 -35 0 -12 8 -11 10 7 10 12 0 25 -4 28 -10z m20 -165
c29 -28 31 -51 8 -99 -19 -40 -62 -65 -99 -58 -31 6 -90 65 -96 96 -11 55 28
85 110 86 43 0 57 -5 77 -25z"/>
<path d="M8757 14730 c-43 -8 -170 -92 -200 -132 -13 -18 -30 -28 -46 -28 -38
0 -72 -11 -65 -21 3 -5 16 -9 30 -9 42 0 28 -30 -26 -52 -50 -21 -60 -34 -39
-55 9 -9 4 -21 -20 -48 -35 -40 -36 -47 -19 -75 15 -24 3 -38 -61 -73 -54 -28
-61 -44 -25 -53 19 -5 29 -2 36 10 13 24 38 20 38 -7 0 -14 19 -41 51 -72 l52
-50 -6 60 c-4 39 -1 80 8 114 18 71 35 88 35 37 0 -101 62 -208 154 -268 76
-49 90 -52 174 -39 106 16 180 49 229 100 24 25 43 40 43 35 0 -11 -58 -84
-80 -100 -55 -42 -65 -54 -51 -63 21 -13 41 -3 126 64 110 86 120 106 118 235
-1 116 -17 190 -58 271 -59 116 -141 185 -255 215 -58 15 -84 16 -143 4z m270
-243 c81 -77 43 -110 -102 -90 -40 5 -49 10 -60 36 -40 96 77 135 162 54z"/>
<path d="M10020 14508 c-19 -5 -57 -15 -85 -23 -27 -8 -68 -16 -89 -19 -43 -6
-72 -28 -61 -46 5 -8 13 -7 31 4 13 9 39 16 59 16 20 0 55 9 77 20 23 11 50
20 60 20 27 0 98 24 98 32 0 10 -46 8 -90 -4z"/>
<path d="M10236 14512 c28 -25 204 -45 204 -24 0 5 -23 14 -51 20 -58 14 -168
16 -153 4z"/>
<path d="M7399 14490 c-15 -8 -79 -93 -222 -291 -35 -48 -93 -114 -130 -148
-36 -33 -63 -63 -58 -65 11 -7 73 38 126 91 22 21 49 46 60 54 40 29 122 136
154 201 19 37 49 86 68 108 35 40 36 69 2 50z"/>
<path d="M13423 14453 c-7 -3 -13 -10 -13 -17 0 -14 75 -155 91 -170 12 -13
12 -56 0 -56 -5 0 -27 21 -50 47 -48 56 -50 49 -15 -38 36 -89 66 -124 152
-180 72 -46 76 -47 103 -33 33 17 54 49 39 59 -5 3 -10 1 -10 -4 0 -15 -31
-14 -73 4 -39 16 -107 71 -107 86 0 18 21 8 61 -28 32 -29 49 -37 81 -37 40
-1 70 23 31 25 -10 0 -13 3 -7 5 6 3 24 0 40 -6 22 -9 25 -13 14 -20 -28 -17
-1 -22 54 -9 70 15 86 31 54 53 -12 9 -28 16 -35 16 -7 0 -54 18 -105 41 -51
23 -104 41 -118 40 -37 -1 -91 58 -137 150 -23 47 -43 75 -50 72z"/>
<path d="M10127 14368 c-95 -9 -181 -37 -217 -68 -28 -24 -28 -24 57 -3 48 11
122 17 248 19 99 1 182 3 185 3 3 1 -20 15 -50 31 -60 32 -78 33 -223 18z"/>
<path d="M13120 14354 c0 -3 6 -12 14 -20 19 -18 27 -18 20 0 -5 14 -34 31
-34 20z"/>
<path d="M10097 14236 c-15 -7 -24 -15 -21 -19 9 -9 149 -9 158 0 3 4 -15 13
-41 20 -58 15 -61 15 -96 -1z"/>
<path d="M9966 14215 c-19 -15 -19 -15 1 -15 30 0 54 11 47 21 -8 13 -26 11
-48 -6z"/>
<path d="M12130 14061 c-8 -5 -49 -16 -90 -25 -41 -10 -106 -30 -145 -46 -93
-39 -139 -50 -203 -50 -58 0 -66 -14 -21 -37 26 -14 67 -10 142 14 26 8 71 18
100 23 29 4 72 14 97 23 125 43 208 67 231 67 25 0 45 21 32 34 -9 9 -126 7
-143 -3z"/>
<path d="M8125 14001 c-19 -8 -19 -8 0 -18 11 -6 45 -14 75 -18 30 -4 123 -23
205 -42 179 -42 213 -50 285 -63 57 -10 146 -4 156 11 3 5 15 9 28 9 32 0 97
33 74 38 -9 2 -25 -1 -35 -6 -80 -43 -299 -1 -375 72 -15 14 -29 22 -33 17 -3
-5 -1 -12 5 -16 18 -11 0 -25 -33 -25 -18 0 -48 5 -67 10 -120 35 -240 48
-285 31z"/>
<path d="M13051 13978 c7 -13 31 -50 55 -84 24 -33 48 -73 55 -90 38 -96 59
-162 59 -181 0 -12 5 -25 10 -28 6 -4 10 13 10 43 0 49 -23 121 -63 197 -12
22 -30 57 -40 77 -24 47 -62 88 -82 88 -13 0 -14 -4 -4 -22z"/>
<path d="M6948 13973 c6 -2 18 -2 25 0 6 3 1 5 -13 5 -14 0 -19 -2 -12 -5z"/>
<path d="M10025 13881 c-123 -14 -275 -79 -359 -152 -102 -90 -114 -219 -30
-330 18 -24 49 -67 68 -96 36 -54 98 -97 206 -142 30 -13 78 -33 105 -45 28
-13 64 -28 81 -35 39 -16 54 -60 54 -162 -1 -70 -13 -109 -36 -109 -5 0 -20
-9 -34 -20 -14 -11 -37 -20 -51 -20 -14 0 -44 -9 -67 -20 -22 -11 -49 -20 -59
-20 -10 0 -40 -7 -67 -15 -57 -17 -173 -19 -263 -5 -169 28 -267 82 -393 221
-127 138 -148 172 -171 272 -7 32 -16 60 -21 63 -4 3 -8 17 -8 32 0 47 -11 72
-31 72 -11 0 -19 7 -19 15 0 21 -23 19 -36 -3 -6 -10 -15 -33 -19 -52 -4 -19
-15 -44 -25 -55 -10 -11 -22 -37 -25 -58 -4 -21 -16 -44 -27 -51 -17 -12 -20
-27 -21 -127 -2 -108 -1 -114 18 -114 16 0 21 8 23 43 3 41 15 55 25 28 3 -7
2 -30 -3 -50 -7 -30 -5 -38 10 -46 14 -8 17 -18 13 -43 -3 -23 0 -37 11 -46
13 -11 17 -11 22 3 3 9 4 22 1 29 -3 8 -1 20 4 28 6 10 9 5 9 -17 0 -20 13
-48 35 -78 35 -45 47 -51 94 -47 15 1 36 -9 57 -30 23 -22 39 -30 54 -26 28 7
90 -11 97 -29 3 -8 14 -14 24 -14 11 0 23 -10 28 -23 5 -13 50 -64 99 -114 72
-72 96 -90 114 -86 35 6 187 -95 293 -195 163 -154 283 -207 465 -207 103 0
106 1 177 39 39 22 102 62 139 90 37 28 74 56 83 61 31 20 52 50 47 68 -6 23
102 150 143 167 16 6 35 25 41 41 7 16 44 57 84 92 39 36 89 89 111 120 47 65
61 74 86 51 17 -16 19 -15 28 7 5 13 18 32 29 43 12 10 24 32 27 48 9 38 80
108 107 105 15 -1 24 8 37 43 12 34 22 46 41 48 14 2 42 17 62 34 39 30 40 33
22 100 -7 23 -83 78 -109 78 -27 0 -56 -31 -85 -93 -53 -114 -163 -230 -293
-309 -168 -102 -262 -130 -437 -130 -120 0 -194 15 -291 61 -78 38 -80 40 -89
143 -16 159 -17 153 38 169 51 14 164 71 250 125 29 19 56 34 61 34 16 0 135
151 167 211 12 24 17 57 18 110 0 68 -3 80 -29 116 -50 69 -178 139 -335 182
-83 23 -266 34 -375 22z m319 -118 c33 -8 80 -21 104 -30 53 -18 160 -82 167
-101 7 -18 -24 -28 -44 -13 -63 46 -290 67 -541 51 -190 -12 -175 -13 -160 6
18 21 69 41 142 56 42 9 62 18 66 30 2 9 11 19 21 22 28 8 183 -5 245 -21z
m-307 -410 c22 -54 34 -103 30 -120 -5 -23 -42 55 -52 110 -8 43 5 49 22 10z
m388 -22 c-7 -27 -32 -61 -47 -61 -12 0 -10 38 3 63 24 45 55 43 44 -2z m380
-740 c3 -5 1 -12 -3 -15 -5 -3 -33 -54 -62 -113 -41 -84 -67 -121 -114 -168
-124 -123 -182 -145 -371 -145 -222 0 -323 48 -430 203 -19 29 -53 77 -75 107
-37 52 -51 90 -31 90 4 0 24 -11 44 -24 19 -13 43 -26 53 -28 10 -1 30 -25 45
-53 37 -68 107 -141 152 -158 28 -11 19 11 -12 29 -32 19 -65 69 -56 84 3 6
17 10 31 10 14 0 41 7 61 15 19 8 59 15 87 15 46 0 53 -3 79 -36 33 -41 54
-41 77 1 l17 30 121 0 c117 0 121 -1 116 -20 -13 -42 -56 -85 -113 -112 -63
-29 -75 -43 -40 -43 68 0 137 63 248 228 33 50 69 95 78 101 23 13 90 14 98 2z
m-1318 -87 c-3 -3 -12 -4 -19 -1 -8 3 -5 6 6 6 11 1 17 -2 13 -5z"/>
<path d="M10100 12260 c0 -6 7 -10 15 -10 8 0 15 2 15 4 0 2 -7 6 -15 10 -8 3
-15 1 -15 -4z"/>
<path d="M13430 13877 c0 -23 42 -53 92 -67 41 -11 51 -10 84 6 53 26 57 46 8
32 -49 -13 -96 -3 -176 39 -5 2 -8 -2 -8 -10z"/>
<path d="M7470 13655 c-11 -26 -20 -55 -20 -66 0 -24 29 -25 36 -1 3 9 10 26
14 37 15 33 16 68 3 72 -8 3 -21 -15 -33 -42z"/>
<path d="M13137 13614 c-3 -5 1 -26 8 -47 7 -21 18 -68 25 -105 15 -81 18 -86
36 -71 28 23 27 71 -5 134 -36 73 -56 101 -64 89z"/>
<path d="M13040 13540 c0 -5 5 -10 10 -10 6 0 10 5 10 10 0 6 -4 10 -10 10 -5
0 -10 -4 -10 -10z"/>
<path d="M8955 13470 c-16 -18 -17 -23 -5 -45 16 -30 26 -25 35 16 9 41 -6 55
-30 29z"/>
<path d="M13122 13410 c0 -14 2 -19 5 -12 2 6 2 18 0 25 -3 6 -5 1 -5 -13z"/>
<path d="M13134 13358 c3 -13 6 -31 6 -40 0 -22 26 -24 34 -2 6 17 -20 64 -36
64 -6 0 -8 -10 -4 -22z"/>
<path d="M12877 13293 c-4 -3 -4 -16 -1 -28 3 -13 1 -26 -5 -29 -20 -13 -12
-36 13 -36 73 0 52 -214 -28 -290 -15 -13 -26 -27 -26 -32 0 -20 33 -4 74 37
50 49 54 67 47 209 -4 81 -53 191 -74 169z"/>
<path d="M9322 13193 c2 -17 10 -29 21 -31 15 -3 18 2 15 25 -2 17 -10 29 -21
31 -15 3 -18 -2 -15 -25z"/>
<path d="M10909 13179 c-7 -14 -8 -24 -1 -31 15 -15 32 0 32 28 0 30 -15 31
-31 3z"/>
<path d="M7697 13175 c-4 -8 -2 -17 3 -20 6 -4 10 3 10 14 0 25 -6 27 -13 6z"/>
<path d="M12578 13122 c-6 -22 1 -44 13 -36 12 7 12 41 0 48 -5 3 -11 -2 -13
-12z"/>
<path d="M9182 13018 c-17 -17 4 -48 34 -48 31 0 30 25 -2 46 -15 10 -23 11
-32 2z"/>
<path d="M9414 12985 c-4 -10 -1 -21 7 -26 20 -12 34 -5 34 17 0 24 -33 31
-41 9z"/>
<path d="M10600 12956 c0 -16 27 -29 41 -20 19 11 9 34 -16 34 -15 0 -25 -6
-25 -14z"/>
<path d="M9703 12938 c2 -7 12 -13 22 -13 10 0 20 6 23 13 2 7 -6 12 -23 12
-17 0 -25 -5 -22 -12z"/>
<path d="M8821 12884 c0 -11 3 -14 6 -6 3 7 2 16 -1 19 -3 4 -6 -2 -5 -13z"/>
<path d="M7746 12863 c-7 -16 -17 -44 -20 -63 -6 -31 -5 -33 7 -17 8 9 22 17
31 17 22 0 39 46 26 71 -15 26 -27 24 -44 -8z"/>
<path d="M11320 12855 c0 -9 6 -12 15 -9 8 4 12 10 9 15 -8 14 -24 10 -24 -6z"/>
<path d="M7577 12803 c-4 -3 -1 -16 6 -27 7 -12 24 -48 37 -81 13 -33 27 -65
32 -72 11 -14 38 -6 38 11 0 6 10 17 21 25 18 11 23 11 30 0 6 -11 9 -10 14 3
8 20 -2 41 -15 33 -5 -3 -20 6 -34 20 -14 14 -29 25 -33 25 -4 0 -19 16 -32
35 -22 33 -49 44 -64 28z"/>
<path d="M12680 12785 c0 -8 5 -15 10 -15 6 0 10 7 10 15 0 8 -4 15 -10 15 -5
0 -10 -7 -10 -15z"/>
<path d="M12772 12737 c-28 -29 -28 -39 -1 -35 28 4 48 33 33 48 -7 7 -17 3
-32 -13z"/>
<path d="M7850 12643 c0 -5 4 -15 10 -23 11 -18 25 -7 17 15 -6 15 -27 21 -27
8z"/>
<path d="M10832 11879 c-59 -41 -166 -93 -232 -113 -30 -10 -66 -23 -80 -30
-48 -25 -443 -42 -471 -20 -8 6 -37 14 -65 17 -36 4 -93 27 -185 73 -74 36
-137 71 -141 77 -4 6 -10 9 -13 5 -18 -18 145 -132 271 -190 152 -70 206 -81
383 -75 133 4 168 8 236 31 143 47 291 146 338 226 23 38 14 37 -41 -1z"/>
<path d="M12768 11283 c12 -2 30 -2 40 0 9 3 -1 5 -23 4 -22 0 -30 -2 -17 -4z"/>
<path d="M12708 11263 c7 -3 16 -2 19 1 4 3 -2 6 -13 5 -11 0 -14 -3 -6 -6z"/>
<path d="M12225 10960 c-3 -5 -1 -10 4 -10 6 0 11 5 11 10 0 6 -2 10 -4 10 -3
0 -8 -4 -11 -10z"/>
<path d="M12352 10959 c2 -6 8 -10 13 -10 5 0 11 4 13 10 2 6 -4 11 -13 11 -9
0 -15 -5 -13 -11z"/>
<path d="M12621 10670 c1 -14 5 -36 9 -50 7 -23 8 -22 9 10 0 19 -4 42 -9 50
-8 12 -10 10 -9 -10z"/>
<path d="M12307 10483 c-4 -3 2 -13 14 -21 26 -18 35 -10 11 11 -10 10 -22 14
-25 10z"/>
<path d="M11650 10210 c0 -5 4 -10 8 -10 18 0 218 -194 236 -228 29 -56 75
-106 82 -88 14 36 -47 112 -229 284 -51 47 -97 68 -97 42z"/>
<path d="M8245 9899 c-7 -21 3 -157 13 -173 5 -10 61 90 62 112 0 18 -43 82
-57 82 -6 0 -15 -9 -18 -21z"/>
<path d="M8512 9760 c-37 -26 -62 -57 -62 -75 0 -7 37 19 89 63 46 39 24 49
-27 12z"/>
<path d="M14632 9600 c0 -14 2 -19 5 -12 2 6 2 18 0 25 -3 6 -5 1 -5 -13z"/>
<path d="M8374 9540 c-62 -89 -84 -119 -107 -143 -10 -10 -16 -22 -12 -25 4
-4 15 4 26 18 11 14 51 57 89 95 41 41 71 80 72 94 5 45 -19 31 -68 -39z"/>
<path d="M10456 9534 c-5 -14 -4 -15 9 -4 17 14 19 20 6 20 -5 0 -12 -7 -15
-16z"/>
<path d="M14420 9516 c0 -9 5 -16 10 -16 6 0 10 4 10 9 0 6 -4 13 -10 16 -5 3
-10 -1 -10 -9z"/>
<path d="M10425 9500 c3 -5 8 -10 11 -10 2 0 4 5 4 10 0 6 -5 10 -11 10 -5 0
-7 -4 -4 -10z"/>
<path d="M10390 9479 c0 -5 5 -7 10 -4 6 3 10 8 10 11 0 2 -4 4 -10 4 -5 0
-10 -5 -10 -11z"/>
<path d="M8710 9265 c0 -8 -13 -36 -28 -62 -46 -79 -127 -295 -115 -307 11
-10 33 7 33 26 0 12 9 35 20 53 11 17 31 63 45 101 14 38 29 78 34 89 34 80
40 115 21 115 -5 0 -10 -7 -10 -15z"/>
<path d="M10808 9173 c7 -3 16 -2 19 1 4 3 -2 6 -13 5 -11 0 -14 -3 -6 -6z"/>
<path d="M8436 9092 c-27 -53 -56 -137 -56 -162 1 -25 1 -24 31 10 25 29 69
139 69 171 0 20 -31 7 -44 -19z"/>
<path d="M10698 9113 c7 -3 16 -2 19 1 4 3 -2 6 -13 5 -11 0 -14 -3 -6 -6z"/>
<path d="M10638 9093 c7 -3 16 -2 19 1 4 3 -2 6 -13 5 -11 0 -14 -3 -6 -6z"/>
<path d="M10495 9080 c-58 -6 -57 -7 29 -8 49 -1 87 0 85 2 -11 9 -60 12 -114
6z"/>
<path d="M8219 8984 c-11 -27 -47 -104 -79 -170 -43 -89 -61 -138 -66 -183 -7
-69 -1 -77 20 -27 10 23 22 35 38 38 20 3 23 8 21 38 -3 37 16 97 75 243 26
66 32 91 24 99 -9 9 -17 -1 -33 -38z"/>
<path d="M11568 8914 c-3 -5 8 -27 23 -48 24 -32 29 -35 29 -18 0 24 -44 80
-52 66z"/>
<path d="M14380 8860 c0 -11 5 -20 10 -20 6 0 10 9 10 20 0 11 -4 20 -10 20
-5 0 -10 -9 -10 -20z"/>
<path d="M11636 8724 c-17 -17 -18 -44 -2 -47 9 -2 29 53 22 60 -2 2 -11 -4
-20 -13z"/>
<path d="M8476 8699 c-3 -17 -12 -45 -20 -62 -36 -83 -66 -217 -49 -217 16 0
30 22 37 60 7 42 33 131 52 182 13 36 10 68 -6 68 -4 0 -10 -14 -14 -31z"/>
<path d="M12500 8655 c0 -23 16 -52 25 -44 3 3 -1 19 -10 35 -12 23 -15 25
-15 9z"/>
<path d="M14360 8645 c0 -8 4 -15 10 -15 5 0 7 7 4 15 -4 8 -8 15 -10 15 -2 0
-4 -7 -4 -15z"/>
<path d="M11571 8534 c-1 -12 6 -37 14 -55 13 -31 14 -32 14 -9 0 14 -6 39
-14 55 -11 25 -14 27 -14 9z"/>
<path d="M11697 8493 c-10 -9 -9 -43 1 -43 12 0 32 23 32 37 0 14 -22 18 -33
6z"/>
<path d="M11630 8358 c0 -24 8 -66 18 -93 21 -55 66 -142 58 -110 -3 11 -10
40 -16 65 -7 25 -16 59 -22 75 -6 17 -13 45 -15 63 -8 49 -23 49 -23 0z"/>
<path d="M8201 8374 c0 -11 3 -14 6 -6 3 7 2 16 -1 19 -3 4 -6 -2 -5 -13z"/>
<path d="M14011 8344 c0 -11 3 -14 6 -6 3 7 2 16 -1 19 -3 4 -6 -2 -5 -13z"/>
<path d="M8176 8335 c-3 -8 -1 -15 4 -15 6 0 10 7 10 15 0 8 -2 15 -4 15 -2 0
-6 -7 -10 -15z"/>
<path d="M8154 8289 c-3 -6 -1 -16 5 -22 8 -8 11 -5 11 11 0 24 -5 28 -16 11z"/>
<path d="M8367 8254 c-4 -4 -7 -14 -7 -23 0 -11 3 -12 11 -4 6 6 10 16 7 23
-2 6 -7 8 -11 4z"/>
<path d="M8122 8228 c-7 -7 -12 -29 -12 -49 0 -21 -4 -41 -10 -44 -12 -7 -13
-55 -2 -55 11 0 29 38 36 75 3 17 8 42 12 58 7 28 -4 35 -24 15z"/>
<path d="M8498 8150 c-29 -91 -34 -132 -26 -194 9 -66 15 -77 28 -56 11 17 23
178 18 250 l-3 55 -17 -55z"/>
<path d="M9082 8189 c2 -7 10 -15 17 -17 8 -3 12 1 9 9 -2 7 -10 15 -17 17 -8
3 -12 -1 -9 -9z"/>
<path d="M8070 8031 c0 -11 -6 -26 -14 -33 -7 -8 -19 -32 -26 -53 -6 -22 -18
-51 -26 -65 -7 -14 -24 -46 -38 -72 -23 -42 -24 -48 -10 -62 8 -9 17 -16 19
-16 5 0 30 56 44 100 6 19 20 43 30 55 32 36 54 146 31 160 -5 3 -10 -3 -10
-14z"/>
<path d="M8654 7906 c-9 -24 3 -238 17 -308 16 -75 31 -100 51 -80 10 10 10
16 0 30 -26 36 -31 65 -38 216 -6 141 -15 182 -30 142z"/>
<path d="M8025 7760 c-4 -6 -3 -41 1 -78 4 -37 7 -149 8 -248 1 -164 3 -184
20 -203 42 -46 55 -19 35 68 -5 24 -11 130 -13 235 -2 142 -7 197 -17 214 -15
24 -24 27 -34 12z"/>
<path d="M8141 7451 c-24 -44 21 -283 49 -266 15 9 11 107 -5 135 -8 14 -14
51 -15 82 0 60 -12 81 -29 49z"/>
<path d="M7867 7373 c-10 -35 1 -219 17 -288 9 -38 16 -82 16 -97 0 -36 10
-58 25 -58 14 0 12 55 -6 198 -5 40 -9 103 -10 140 -1 76 -9 114 -26 119 -6 2
-14 -4 -16 -14z"/>
<path d="M10200 7030 c0 -243 2 -270 16 -270 14 0 16 8 10 46 -3 26 -6 147 -6
270 0 143 -4 224 -10 224 -6 0 -10 -97 -10 -270z"/>
<path d="M12080 7205 c-9 -11 -10 -18 -1 -28 11 -14 2 -125 -20 -225 -6 -26
-14 -65 -19 -87 -4 -22 -17 -74 -29 -115 -35 -131 -35 -129 -7 -85 15 22 29
51 32 65 4 14 12 44 20 68 20 62 31 113 49 237 21 137 10 212 -25 170z"/>
<path d="M8337 7193 c-12 -11 -7 -57 8 -83 8 -14 14 -37 15 -51 0 -60 131
-366 138 -326 2 10 -5 37 -16 60 -10 23 -25 60 -32 82 -7 22 -16 45 -20 50 -3
6 -12 30 -19 55 -7 25 -17 58 -22 74 -5 16 -9 47 -9 68 0 56 -22 92 -43 71z"/>
<path d="M12000 7026 c0 -13 -8 -45 -19 -72 -38 -101 -54 -173 -33 -148 30 33
80 244 58 244 -3 0 -6 -11 -6 -24z"/>
<path d="M7616 6942 c-2 -4 -7 -24 -11 -45 -6 -29 -4 -37 8 -37 18 0 27 21 27
61 0 27 -13 39 -24 21z"/>
<path d="M7836 6935 c-8 -21 10 -154 30 -217 18 -61 21 -68 63 -168 17 -41 31
-81 31 -87 0 -7 5 -13 10 -13 6 0 10 -9 10 -19 0 -31 101 -211 118 -211 4 0
16 -14 26 -32 20 -33 99 -113 128 -129 14 -7 16 -6 12 6 -4 8 -10 15 -15 15
-14 0 -76 103 -90 148 -7 24 -26 58 -42 75 -34 36 -75 114 -108 202 -12 33
-25 65 -29 70 -4 6 -22 69 -39 140 -53 217 -60 235 -86 235 -7 0 -15 -7 -19
-15z"/>
<path d="M8520 6891 c0 -15 4 -41 10 -57 5 -16 16 -67 24 -114 13 -73 18 -88
45 -110 17 -14 44 -46 61 -73 63 -100 176 -234 188 -223 2 2 -17 30 -41 63
-24 32 -57 78 -72 103 -16 25 -41 61 -56 80 -40 50 -75 142 -93 244 -8 49 -21
94 -27 102 -19 24 -39 16 -39 -15z"/>
<path d="M8175 6801 c-4 -27 -2 -57 3 -67 6 -11 15 -51 20 -89 11 -69 31 -130
78 -230 12 -27 26 -63 30 -80 4 -16 10 -34 14 -40 3 -5 12 -30 19 -55 7 -25
17 -59 22 -76 5 -17 9 -40 9 -53 0 -26 27 -81 39 -81 20 0 34 31 24 53 -17 34
-29 74 -53 167 -12 47 -25 90 -29 95 -4 6 -14 30 -21 55 -8 25 -21 61 -31 80
-9 19 -22 46 -28 60 -13 29 -38 139 -52 229 -5 35 -12 67 -15 72 -12 20 -23 6
-29 -40z"/>
<path d="M13530 6802 c0 -18 36 -59 44 -51 2 2 -2 19 -9 37 -15 35 -35 43 -35
14z"/>
<path d="M12649 6763 c-7 -27 -21 -61 -31 -78 -10 -16 -18 -47 -18 -67 0 -21
-4 -38 -10 -38 -5 0 -10 -7 -10 -16 0 -65 81 113 97 214 8 49 -13 38 -28 -15z"/>
<path d="M11888 6712 c-40 -82 -43 -92 -30 -92 13 0 74 129 70 150 -2 13 -16
-7 -40 -58z"/>
<path d="M13640 6768 c0 -12 7 -18 23 -17 15 0 17 2 7 6 -8 3 -18 11 -22 17
-5 7 -8 4 -8 -6z"/>
<path d="M11716 6647 c-28 -135 -32 -179 -13 -171 24 9 65 210 51 247 -12 31
-19 17 -38 -76z"/>
<path d="M13268 6713 c-14 -16 -39 -48 -56 -73 -16 -25 -40 -55 -52 -68 -42
-45 -13 -31 44 20 50 45 116 126 116 142 0 15 -29 3 -52 -21z"/>
<path d="M8687 6709 c-7 -26 5 -60 27 -78 9 -7 16 -22 16 -32 0 -10 5 -21 10
-24 6 -3 10 -14 10 -24 0 -27 91 -160 139 -204 52 -48 53 -32 1 28 -48 56 -84
116 -105 175 -23 65 -77 180 -86 180 -3 0 -9 -9 -12 -21z"/>
<path d="M13021 6648 c-17 -54 -63 -150 -90 -184 -12 -15 -21 -37 -21 -49 0
-11 -18 -57 -40 -100 -22 -43 -40 -90 -40 -104 0 -19 13 -1 45 62 25 49 57
109 72 135 39 69 50 93 92 195 13 33 15 87 3 87 -5 0 -14 -19 -21 -42z"/>
<path d="M12552 6520 c-10 -17 -10 -20 3 -20 8 0 15 9 15 20 0 11 -1 20 -3 20
-1 0 -8 -9 -15 -20z"/>
<path d="M11578 6468 c-14 -21 -113 -274 -120 -307 -7 -31 20 -19 40 18 21 36
112 284 112 303 0 16 -18 8 -32 -14z"/>
<path d="M9054 6405 c-7 -18 2 -88 15 -113 5 -9 22 -44 37 -77 42 -94 94 -138
94 -80 0 15 -16 41 -44 70 -45 46 -76 119 -76 178 0 31 -18 45 -26 22z"/>
<path d="M11648 6369 c-5 -29 3 -45 16 -32 9 9 7 51 -3 57 -5 3 -11 -8 -13
-25z"/>
<path d="M12717 6373 c-3 -5 -8 -24 -12 -43 -14 -68 -36 -122 -111 -269 -81
-158 -99 -234 -30 -127 92 141 198 391 183 430 -7 17 -23 21 -30 9z"/>
<path d="M9148 6354 c-8 -13 15 -96 35 -125 26 -36 26 3 1 54 -12 27 -24 56
-26 65 -2 10 -6 13 -10 6z"/>
<path d="M9230 6231 c0 -45 53 -141 104 -188 111 -103 216 -177 216 -151 0 7
-46 49 -101 93 -101 79 -138 123 -174 200 -10 22 -24 49 -31 60 -13 18 -14 17
-14 -14z"/>
<path d="M8750 6013 c0 -51 6 -79 23 -113 75 -148 176 -287 218 -302 31 -11
40 -42 14 -52 -19 -7 -19 -21 1 -40 22 -23 31 -20 49 14 22 42 19 57 -16 77
-69 40 -234 311 -246 404 -13 98 -43 107 -43 12z"/>
<path d="M12205 6003 c-51 -252 -292 -630 -487 -764 -32 -22 -71 -42 -87 -45
-35 -7 -45 -25 -26 -50 13 -18 15 -18 57 5 90 50 167 108 212 158 106 118 275
405 325 552 12 35 29 77 37 92 16 32 9 79 -12 79 -7 0 -16 -12 -19 -27z"/>
<path d="M8650 5956 c0 -28 129 -289 163 -328 12 -14 35 -42 51 -62 33 -42 56
-47 56 -12 0 16 -16 40 -46 68 -60 57 -164 238 -164 285 0 18 -38 73 -51 73
-5 0 -9 -11 -9 -24z"/>
<path d="M9667 5693 c-10 -9 -9 -77 1 -88 5 -6 14 -35 22 -65 7 -30 23 -78 36
-105 12 -28 26 -64 30 -80 10 -40 54 -107 68 -102 20 7 0 87 -36 139 -10 14
-18 32 -18 40 0 8 -8 30 -18 50 -11 20 -25 65 -32 100 -11 55 -35 118 -44 118
-1 0 -6 -3 -9 -7z"/>
<path d="M10490 5608 c0 -71 -19 -174 -41 -230 -7 -18 -16 -25 -27 -21 -13 6
-14 -3 -9 -63 18 -190 28 -206 104 -158 12 8 27 14 32 14 9 0 170 101 247 155
60 41 204 276 204 332 0 37 -15 20 -59 -67 -48 -96 -127 -214 -170 -254 -17
-17 -31 -27 -31 -23 0 12 46 80 74 109 14 15 26 34 26 43 0 24 -14 18 -27 -12
-20 -43 -81 -110 -158 -172 -64 -52 -149 -111 -159 -111 -16 0 2 288 29 452 8
45 -1 78 -21 78 -11 0 -14 -16 -14 -72z"/>
<path d="M10298 5415 c4 -144 16 -206 37 -195 6 3 9 14 8 25 -18 191 -24 239
-32 249 -5 6 -11 25 -13 41 -2 17 -2 -37 0 -120z"/>
<path d="M10847 5504 c-4 -4 -7 -14 -7 -23 0 -11 3 -12 11 -4 6 6 10 16 7 23
-2 6 -7 8 -11 4z"/>
<path d="M9640 5465 c0 -25 7 -45 46 -130 66 -147 96 -205 104 -205 14 0 12
11 -10 58 -11 22 -20 49 -20 60 0 10 -4 22 -8 28 -5 5 -19 34 -31 64 -62 151
-81 181 -81 125z"/>
<path d="M9276 5239 c-30 -35 -31 -47 -12 -93 28 -67 83 -88 127 -49 14 12 18
11 31 -9 18 -28 74 -88 81 -88 3 0 18 -5 32 -10 23 -9 25 -13 15 -25 -10 -12
-10 -15 2 -15 8 0 39 -22 69 -50 29 -27 59 -50 65 -50 6 0 23 -10 38 -22 14
-13 40 -34 57 -48 17 -14 38 -33 47 -42 9 -10 21 -18 26 -18 5 0 2 8 -7 18
-10 10 -17 23 -17 29 0 6 -28 35 -61 64 -34 30 -71 63 -83 75 -44 43 -114 94
-130 94 -9 0 -16 8 -16 18 0 10 -27 43 -60 73 -42 38 -60 61 -60 79 -1 34 -32
73 -56 68 -16 -3 -19 -12 -19 -62 0 -64 -14 -82 -33 -41 -16 34 -15 64 3 95
18 32 18 40 1 40 -8 0 -26 -14 -40 -31z"/>
<path d="M10560 5255 c-7 -9 -8 -15 -2 -15 5 0 12 7 16 15 3 8 4 15 2 15 -2 0
-9 -7 -16 -15z"/>
<path d="M9880 5230 c0 -11 7 -20 15 -20 8 0 15 9 15 20 0 11 -7 20 -15 20 -8
0 -15 -9 -15 -20z"/>
<path d="M11525 5238 c-11 -6 -24 -15 -30 -20 -5 -5 -25 -18 -44 -31 -19 -12
-53 -49 -76 -83 -23 -34 -52 -71 -64 -83 -25 -25 -19 -49 7 -29 10 7 19 16 22
19 3 3 37 27 76 51 65 42 119 100 153 166 10 19 9 22 -6 22 -10 0 -27 -6 -38
-12z m-45 -81 c0 -14 -20 -37 -32 -37 -4 0 -2 11 4 25 12 27 28 34 28 12z"/>
<path d="M9815 5188 c14 -43 33 -73 92 -139 32 -36 76 -87 98 -112 21 -26 51
-51 65 -57 38 -16 92 -51 143 -92 52 -43 62 -46 77 -18 14 25 -3 60 -29 60
-34 0 -237 153 -319 240 -18 19 -45 52 -59 72 -14 20 -36 44 -50 53 -24 16
-25 16 -18 -7z"/>
<path d="M9552 5119 c2 -7 10 -15 17 -17 8 -3 12 1 9 9 -2 7 -10 15 -17 17 -8
3 -12 -1 -9 -9z"/>
<path d="M9811 5104 c0 -11 3 -14 6 -6 3 7 2 16 -1 19 -3 4 -6 -2 -5 -13z"/>
<path d="M9658 5045 c-3 -3 -4 -15 -1 -25 5 -18 15 -22 88 -33 6 -1 11 3 12 8
1 6 -8 9 -20 7 -15 -2 -25 5 -32 20 -10 22 -35 35 -47 23z"/>
<path d="M11098 4997 c-54 -45 -103 -67 -144 -67 -24 0 -86 -31 -116 -58 -22
-19 -23 -42 -2 -42 22 0 134 52 134 62 0 4 13 8 29 8 35 0 91 19 91 31 0 5 4
9 10 9 10 0 37 20 72 53 15 15 17 21 7 33 -17 20 -21 19 -81 -29z"/>
<path d="M9456 4943 c-3 -8 -4 -19 -1 -23 8 -13 35 -1 35 15 0 19 -27 26 -34
8z"/>
<path d="M10725 4883 c-43 -41 -91 -80 -105 -85 -38 -13 -62 -51 -47 -72 11
-15 14 -15 36 5 19 18 27 20 42 11 12 -8 20 -8 25 -1 3 6 13 8 21 5 9 -4 13
-1 10 6 -4 11 26 64 43 78 37 29 86 131 63 130 -5 -1 -44 -35 -88 -77z"/>
<path d="M9871 4894 c0 -11 3 -14 6 -6 3 7 2 16 -1 19 -3 4 -6 -2 -5 -13z"/>
<path d="M10614 4669 c-3 -6 -1 -16 5 -22 8 -8 11 -5 11 11 0 24 -5 28 -16 11z"/>
<path d="M10697 4635 c-4 -8 -2 -17 3 -20 6 -4 10 3 10 14 0 25 -6 27 -13 6z"/>
<path d="M10825 4640 c4 -6 11 -8 16 -5 14 9 11 15 -7 15 -8 0 -12 -5 -9 -10z"/>
<path d="M9665 4630 c-8 -13 20 -24 42 -16 15 6 15 8 3 16 -20 13 -37 12 -45
0z"/>
<path d="M10583 4604 c-10 -16 -37 -46 -60 -68 -26 -25 -43 -49 -43 -63 0 -31
11 -29 35 7 11 16 27 30 36 30 9 0 22 14 29 33 7 17 17 42 23 54 16 34 1 39
-20 7z"/>
</g>
</svg>
